<svg id="Layer_1" data-name="Layer 1" xmlns="http://www.w3.org/2000/svg" viewBox="0 0 314 136"><title>better-is-here-logo</title><rect width="314" height="136" style="fill:#ed1c24;opacity:0"/><path d="M1.249,27.289H14.66c7.292,0,12.392,3.264,12.392,9.536a8.9,8.9,0,0,1-4.232,7.751v.1c4.182,1.275,5.711,5,5.711,8.21,0,7.955-6.629,10.862-13.871,10.862H1.249ZM14.762,41.414a3.083,3.083,0,0,0,3.212-3.365c0-1.683-.969-3.111-3.366-3.111H10.172v6.476ZM15.527,56.1A3.622,3.622,0,0,0,19.4,52.276a3.505,3.505,0,0,0-3.824-3.723H10.172V56.1Z" style="fill:#fff"/><path d="M44.6,36.875c7.751,0,12.137,5.406,12.137,12.7,0,.867-.2,2.754-.2,2.754H39.957a5.864,5.864,0,0,0,6.12,4.691c3.773,0,7.241-2.651,7.241-2.651l3.264,6.17a17.732,17.732,0,0,1-11.219,3.825c-9.383,0-14.432-6.783-14.432-13.769C30.931,42.893,36.132,36.875,44.6,36.875Zm3.264,10.4A3.576,3.576,0,0,0,44.393,43.5c-2.55,0-3.773,1.836-4.232,3.774Z" style="fill:#fff"/><path d="M61.835,44.831H58.47V37.947h3.621V30.4h8.567v7.547h5.507v6.884H70.658v8.057c0,2.958,3.009,3.366,4.691,3.366a11.686,11.686,0,0,0,1.173-.051v7.649a16.99,16.99,0,0,1-2.4.153c-4.182,0-12.29-1.122-12.29-9.944Z" style="fill:#fff"/><path d="M81.98,44.831H78.614V37.947h3.621V30.4H90.8v7.547H96.31v6.884H90.8v8.057c0,2.958,3.009,3.366,4.691,3.366a11.686,11.686,0,0,0,1.173-.051v7.649a16.99,16.99,0,0,1-2.4.153c-4.182,0-12.29-1.122-12.29-9.944Z" style="fill:#fff"/><path d="M111.559,36.875c7.751,0,12.137,5.406,12.137,12.7,0,.867-.2,2.754-.2,2.754H106.918a5.864,5.864,0,0,0,6.12,4.691c3.773,0,7.241-2.651,7.241-2.651l3.264,6.17a17.732,17.732,0,0,1-11.219,3.825c-9.383,0-14.432-6.783-14.432-13.769C97.893,42.893,103.094,36.875,111.559,36.875Zm3.264,10.4a3.576,3.576,0,0,0-3.468-3.774c-2.55,0-3.773,1.836-4.232,3.774Z" style="fill:#fff"/><path d="M126.452,37.488h8.465v4.437a13.893,13.893,0,0,1-.1,1.632h.1a9.115,9.115,0,0,1,8.363-6.527,5.957,5.957,0,0,1,1.02.1V45.8a9.4,9.4,0,0,0-1.785-.153c-2.091,0-5.507.663-6.782,4.589a11.9,11.9,0,0,0-.459,3.57V63.75h-8.822Z" style="fill:#fff"/><path d="M158.02,37.488h8.822V63.75H158.02Zm.1-10.2h8.618v6.884h-8.618Z" style="fill:#fff"/><path d="M174.084,54.571a11.053,11.053,0,0,0,6.681,2.652c1.326,0,2.6-.357,2.6-1.224,0-2.295-12.289-2.55-12.289-11.117,0-4.946,4.742-8.006,10.811-8.006,6.119,0,9.23,3.009,9.23,3.009l-3.009,6.272a10.49,10.49,0,0,0-6.222-2.142c-1.326,0-2.6.357-2.6,1.275,0,1.989,12.289,2.294,12.289,10.76,0,4.487-3.978,8.313-10.76,8.313a15.814,15.814,0,0,1-10.5-3.876Z" style="fill:#fff"/><path d="M206.01,27.289h8.822V38.813a22.366,22.366,0,0,1-.1,2.244h.1a9.018,9.018,0,0,1,8.006-4.182c5.3,0,9.435,2.448,9.435,9.842V63.75H223.45V48.35c0-2.448-.969-3.468-2.907-3.468a5.3,5.3,0,0,0-5.252,3.875,10.138,10.138,0,0,0-.459,3.366V63.75H206.01Z" style="fill:#fff"/><path d="M250.225,36.875c7.751,0,12.137,5.406,12.137,12.7,0,.867-.2,2.754-.2,2.754H245.584a5.863,5.863,0,0,0,6.119,4.691c3.773,0,7.241-2.651,7.241-2.651l3.264,6.17a17.732,17.732,0,0,1-11.219,3.825c-9.383,0-14.432-6.783-14.432-13.769C236.558,42.893,241.759,36.875,250.225,36.875Zm3.264,10.4a3.576,3.576,0,0,0-3.468-3.774c-2.55,0-3.774,1.836-4.233,3.774Z" style="fill:#fff"/><path d="M266.137,37.488H274.6v4.437a13.959,13.959,0,0,1-.1,1.632h.1a9.115,9.115,0,0,1,8.363-6.527,5.974,5.974,0,0,1,1.021.1V45.8a9.4,9.4,0,0,0-1.785-.153c-2.091,0-5.508.663-6.782,4.589a11.884,11.884,0,0,0-.459,3.57V63.75h-8.822Z" style="fill:#fff"/><path d="M300.867,36.875c7.751,0,12.137,5.406,12.137,12.7,0,.867-.2,2.754-.2,2.754H296.227a5.863,5.863,0,0,0,6.119,4.691c3.773,0,7.241-2.651,7.241-2.651l3.264,6.17a17.732,17.732,0,0,1-11.219,3.825c-9.383,0-14.432-6.783-14.432-13.769C287.2,42.893,292.4,36.875,300.867,36.875Zm3.264,10.4a3.576,3.576,0,0,0-3.468-3.774c-2.55,0-3.774,1.836-4.233,3.774Z" style="fill:#fff"/><path d="M101.951,94.16H93.971l-2.1,6.09h-3.06l7.62-21.179h3.12l7.62,21.179h-3.09Zm-3.99-12.179s-.48,1.919-.84,3l-2.37,6.72h6.42l-2.34-6.72c-.36-1.08-.81-3-.81-3Z" style="fill:#fff"/><path d="M110.471,96.32a6.514,6.514,0,0,0,4.35,1.77c1.26,0,2.52-.66,2.52-1.89,0-2.79-7.8-2.22-7.8-7.17,0-2.76,2.46-4.319,5.49-4.319a6.824,6.824,0,0,1,4.89,1.68l-1.17,2.189A5.556,5.556,0,0,0,115,87.23c-1.26,0-2.49.54-2.49,1.859,0,2.73,7.8,2.131,7.8,7.11,0,2.521-2.16,4.409-5.49,4.409a8.163,8.163,0,0,1-5.76-2.219Z" style="fill:#fff"/><path d="M124.331,79.071h2.91V90.65h2.13l4.14-5.58h3.3l-5.04,6.689v.061l5.61,8.43h-3.39l-4.56-7.14h-2.19v7.14h-2.91Z" style="fill:#fff"/><path d="M149.83,87.621h-1.89v-2.34h1.89v-.721c0-5.01,3.78-5.64,5.7-5.64a6.25,6.25,0,0,1,1.11.09V81.5a4.21,4.21,0,0,0-.75-.06,2.884,2.884,0,0,0-3.18,3.18v.66h3.6v2.34h-3.6V100.25h-2.88Z" style="fill:#fff"/><path d="M166.779,84.711a7.953,7.953,0,1,1-8.189,7.92A7.918,7.918,0,0,1,166.779,84.711Zm0,13.379a5.434,5.434,0,1,0-5.22-5.459A5.243,5.243,0,0,0,166.779,98.09Z" style="fill:#fff"/><path d="M179.021,85.07h2.819v2.641a10.98,10.98,0,0,1-.06,1.14h.06a5.19,5.19,0,0,1,4.8-3.96,5.108,5.108,0,0,1,.75.061V87.83a4.194,4.194,0,0,0-.84-.09,4.605,4.605,0,0,0-4.26,3.57,9.2,9.2,0,0,0-.36,2.729v6.21h-2.909Z" style="fill:#fff"/><path d="M199.149,79.071h2.939v2.97h-2.939Zm.03,6h2.909v15.18H199.18Z" style="fill:#fff"/><path d="M207.88,87.621H205.9v-2.34h2.07V80.9h2.819v4.38h3.66v2.34h-3.66V94.37c0,3.03,2.13,3.42,3.24,3.42a3.536,3.536,0,0,0,.69-.06v2.58a8.037,8.037,0,0,1-1.021.06c-1.95,0-5.819-.6-5.819-5.67Z" style="fill:#fff"/><path d="M218.589,97.16h3.06v3.09h-3.06Z" style="fill:#fff"/></svg>