<svg id="6f55af7c-99f8-44b6-bb77-ca76173718d2" data-name="Layer 1" xmlns="http://www.w3.org/2000/svg" viewBox="0 0 111.07 91.981"><title>icons-reliability-75-light-red</title><path d="M111,46A35.7,35.7,0,0,0,75.374,10.3H66.143a2.665,2.665,0,1,0,0,5.331h9.231a30.363,30.363,0,0,1,0,60.726H69.048l9.215-5.329A2.664,2.664,0,0,0,75.6,66.414l-17.81,10.3a2.667,2.667,0,0,0,0,4.616L75.6,91.637a2.665,2.665,0,0,0,2.661-4.618L69.05,81.691h6.323A35.7,35.7,0,0,0,111,46ZM53.207,10.661,35.4.358a2.664,2.664,0,1,0-2.661,4.616l9.212,5.33H35.624a35.694,35.694,0,0,0,0,71.388h9.231a2.666,2.666,0,1,0,0-5.331H35.624a30.363,30.363,0,0,1,0-60.726H41.95l-9.213,5.33A2.664,2.664,0,1,0,35.4,25.58l17.811-10.3a2.667,2.667,0,0,0,0-4.616Z" transform="translate(0.07 -0.002)" style="fill:#ffc2b9"/><path d="M35.5,37.952a13.073,13.073,0,0,1,1.476-2.34v-.071a11.581,11.581,0,0,1-1.872.107H23.766v-3.1h16.99V35L29.274,57.966H25.6Zm9.038,14.326a7.285,7.285,0,0,0,5.579,2.736c2.988,0,5.58-2.052,5.58-5.147,0-3.06-2.52-5.22-5.8-5.22a8.144,8.144,0,0,0-4.283,1.26l-2.052-.756,1.26-12.6H57.64v3.1H47.922l-.612,5.363a7.559,7.559,0,0,1-.18,1.332h.07a7.31,7.31,0,0,1,3.276-.792c5.363,0,8.854,3.708,8.854,8.279,0,4.9-3.851,8.566-9,8.566a9.87,9.87,0,0,1-7.775-3.527Zm18.288-14.83a5.455,5.455,0,1,1,5.581,5.326h-.145A5.386,5.386,0,0,1,62.826,37.448Zm19.978-4.9h3.384L66.75,57.966H63.366Zm-11.879,4.9a2.664,2.664,0,1,0-5.327-.1q0,.052,0,.1a2.664,2.664,0,1,0,5.327.1Q70.926,37.5,70.925,37.448Zm10.4,10.295A5.329,5.329,0,1,1,81.617,58.4q-.146,0-.292,0a5.329,5.329,0,1,1-.292-10.654Q81.179,47.739,81.325,47.743Zm0,7.991a2.635,2.635,0,0,0,2.663-2.607q0-.029,0-.057a2.664,2.664,0,1,0-5.327-.1q0,.052,0,.1a2.614,2.614,0,0,0,2.563,2.664h.1Z" transform="translate(0.07 -0.002)" style="fill:#ff8674"/></svg>