<svg id="d290330c-4ce2-4df3-9511-7b97ab1757e3" data-name="Layer 1" xmlns="http://www.w3.org/2000/svg" viewBox="0 0 128.002 75.999"><title>icons-speed-low-medium-light-red</title><path d="M2.2,66.776l62.875-.25L64.333,2.16S34.692,5.332,17.159,25.012C1.163,42.968,2.2,66.776,2.2,66.776Z" transform="translate(0)" style="fill:#ffe7e3"/><path d="M2.2,66.776l62.875-.25-55.042-33.5A52.158,52.158,0,0,0,3.871,48.693,109.368,109.368,0,0,0,2.2,66.776Z" transform="translate(0)" style="fill:#ffc2b9"/><path d="M64,0C28.711,0,0,29.076,0,64.814a2.657,2.657,0,0,0,2.64,2.674h0a2.657,2.657,0,0,0,2.641-2.673h0C5.281,32.024,31.622,5.348,64,5.348s58.72,26.676,58.72,59.466a2.641,2.641,0,0,0,5.281.1q0-.051,0-.1C128,29.076,99.29,0,64,0ZM20.016,62.267H14.5a2.292,2.292,0,0,0,0,4.584h5.519a2.292,2.292,0,0,0,0-4.584Zm94.577,0h-5.519a2.292,2.292,0,0,0,0,4.584h5.519a2.292,2.292,0,0,0,0-4.584Zm-47.785-42.8V13.875a2.264,2.264,0,1,0-4.527,0v5.589a2.264,2.264,0,1,0,4.527,0h0Zm23.974-.736a2.248,2.248,0,0,0-3.076.8l-.017.03L84.921,24.4a2.308,2.308,0,0,0,.823,3.132,2.248,2.248,0,0,0,3.076-.8l.017-.03L91.6,21.861a2.308,2.308,0,0,0-.818-3.133Zm19.035,19.29a2.248,2.248,0,0,0-3.062-.854l-.031.018-4.776,2.8a2.308,2.308,0,0,0-.825,3.132,2.248,2.248,0,0,0,3.063.852l.03-.017,4.776-2.8a2.308,2.308,0,0,0,.825-3.134ZM27.026,40.163l-4.789-2.777a2.248,2.248,0,0,0-3.072.82l-.017.03a2.308,2.308,0,0,0,.84,3.128l4.789,2.777a2.248,2.248,0,0,0,3.072-.82l.017-.03A2.308,2.308,0,0,0,27.026,40.163ZM43.172,27.632A2.308,2.308,0,0,0,43.98,24.5l-2.791-4.822a2.248,2.248,0,0,0-3.067-.837l-.033.019A2.308,2.308,0,0,0,37.281,22l2.791,4.822a2.248,2.248,0,0,0,3.068.833Zm26.572,28.49A10.384,10.384,0,0,0,57.3,57.763L34.85,46.531a1.545,1.545,0,0,0-2.322.44c-.553.981-.227,1.645.81,2.242L54.357,62.995a10.621,10.621,0,0,0,4.951,11.648,10.445,10.445,0,0,0,14.234-3.948L73.6,70.6a10.675,10.675,0,0,0-3.852-14.478Zm-.13,12.188a5.86,5.86,0,0,1-7.963,2.3l-.051-.028a5.988,5.988,0,0,1-2.16-8.122,5.859,5.859,0,0,1,7.961-2.3l.054.03a5.988,5.988,0,0,1,2.158,8.122Z" transform="translate(0)" style="fill:#f58575"/></svg>