<svg id="a2d9331c-4259-48d9-ab1e-5f455215562d" xmlns="http://www.w3.org/2000/svg" xmlns:xlink="http://www.w3.org/1999/xlink" viewBox="0 0 110.88 91.99"><defs><clipPath id="clip-path" transform="translate(-0.12 0)"><rect width="111" height="92" style="fill:none"/></clipPath></defs><title>icons-reliability-77-light-red</title><g style="clip-path:url(#clip-path)"><path d="M111,46A35.7,35.7,0,0,0,75.37,10.3H66.14a2.66,2.66,0,0,0,0,5.33h9.23a30.36,30.36,0,0,1,0,60.73H69L78.26,71a2.66,2.66,0,0,0-2.66-4.61L57.79,76.72a2.67,2.67,0,0,0,0,4.62L75.6,91.64A2.67,2.67,0,0,0,78.26,87h0l-9.21-5.33h6.32A35.7,35.7,0,0,0,111,46" transform="translate(-0.12 0)" style="fill:#ffc2b9"/><path d="M53.21,10.66,35.4.36A2.66,2.66,0,1,0,32.74,5L42,10.3H35.62a35.69,35.69,0,0,0,0,71.39h9.23a2.67,2.67,0,0,0,0-5.33H35.62a30.36,30.36,0,1,1,0-60.73H42L32.74,21a2.66,2.66,0,1,0,2.66,4.62l17.81-10.3a2.67,2.67,0,0,0,0-4.62" transform="translate(-0.12 0)" style="fill:#ffc2b9"/></g><path d="M35.5,38A13.06,13.06,0,0,1,37,35.61v-.07a11.53,11.53,0,0,1-1.87.11H23.77v-3.1h17V35L29.27,58H25.6Z" transform="translate(-0.12 0)" style="fill:#ff8674"/><path d="M65.06,37.45a5.45,5.45,0,1,1,5.58,5.33h-.14A5.39,5.39,0,0,1,65.06,37.45Zm20-4.9h3.38L69,58H65.6Zm-11.88,4.9a2.66,2.66,0,0,0-5.33,0h0a2.66,2.66,0,1,0,5.33,0Zm10.4,10.3a5.33,5.33,0,1,1,.29,10.65h-.29a5.33,5.33,0,1,1-.29-10.65Zm0,8a2.64,2.64,0,0,0,2.66-2.61s0,0,0-.06a2.66,2.66,0,1,0-5.33,0h0a2.61,2.61,0,0,0,2.56,2.66h.1Z" transform="translate(-0.12 0)" style="fill:#ff8674"/><path d="M56.5,38A13.06,13.06,0,0,1,58,35.61v-.07a11.53,11.53,0,0,1-1.87.11H44.77v-3.1h17V35L50.27,58H46.6Z" transform="translate(-0.12 0)" style="fill:#ff8674"/></svg>