<svg id="a2d9331c-4259-48d9-ab1e-5f455215562d" data-name="Layer 1" xmlns="http://www.w3.org/2000/svg" xmlns:xlink="http://www.w3.org/1999/xlink" viewBox="0 0 110.999 91.996"><defs><clipPath id="35218eaf-2353-4174-9807-edb2d4ad78f8" transform="translate(0 0.001)"><rect width="110.999" height="91.995" style="fill:none"/></clipPath></defs><title>icons-reliability-70-light-red</title><g style="clip-path:url(#35218eaf-2353-4174-9807-edb2d4ad78f8)"><path d="M111,46A35.7,35.7,0,0,0,75.374,10.3H66.143a2.665,2.665,0,0,0,0,5.33h9.231a30.363,30.363,0,0,1,0,60.726H69.048l9.215-5.33A2.664,2.664,0,0,0,75.6,66.414l-17.811,10.3a2.666,2.666,0,0,0,0,4.616L75.6,91.638a2.665,2.665,0,0,0,2.661-4.619L69.05,81.691h6.324A35.7,35.7,0,0,0,111,46" transform="translate(0 0.001)" style="fill:#ffc2b9"/><path d="M53.207,10.661,35.4.357a2.664,2.664,0,0,0-2.661,4.617l9.212,5.33H35.624a35.694,35.694,0,0,0,0,71.387h9.231a2.666,2.666,0,0,0,0-5.331H35.624a30.363,30.363,0,0,1,0-60.726H41.95l-9.214,5.33A2.664,2.664,0,1,0,35.4,25.58l17.811-10.3a2.667,2.667,0,0,0,0-4.616" transform="translate(0 0.001)" style="fill:#ffc2b9"/></g><path d="M35.5,37.952a13.056,13.056,0,0,1,1.476-2.339V35.54a11.529,11.529,0,0,1-1.872.108H23.766v-3.1h16.99V35L29.273,57.966H25.6Z" transform="translate(0 0.001)" style="fill:#ff8674"/><path d="M43.1,45.224c0-7.307,2.2-13.1,8.963-13.1,6.8,0,9,5.8,9,13.1,0,7.343-2.2,13.174-9,13.174C45.293,58.4,43.1,52.566,43.1,45.224Zm14.326,0c0-5.507-1.187-9.827-5.363-9.827-4.139,0-5.327,4.32-5.327,9.827,0,5.543,1.188,9.9,5.327,9.9C56.236,55.122,57.424,50.766,57.424,45.224Z" transform="translate(0 0.001)" style="fill:#ff8674"/><path d="M65.058,37.448a5.455,5.455,0,1,1,5.436,5.328A5.386,5.386,0,0,1,65.058,37.448Zm19.978-4.9h3.384L68.981,57.966H65.6Zm-11.878,4.9a2.664,2.664,0,1,0-5.328,0,2.664,2.664,0,0,0,5.328,0Zm10.4,10.295a5.329,5.329,0,1,1,0,10.654,5.329,5.329,0,1,1,0-10.654Zm0,7.991a2.636,2.636,0,0,0,2.664-2.664,2.664,2.664,0,1,0-5.328,0A2.614,2.614,0,0,0,83.56,55.734Z" transform="translate(0 0.001)" style="fill:#ff8674"/></svg>