<svg id="8616d614-3eef-426e-977e-8f343573d8ca" data-name="Layer 1" xmlns="http://www.w3.org/2000/svg" viewBox="0 0 128.002 76.529"><title>icons-speed-faster-purple</title><path d="M2.955,66.776l62.875-.25,61.367.5S124.3.434,63.28,2.026C5.78,3.526,2.955,66.776,2.955,66.776Z" transform="translate(-0.001)" style="fill:#cbbbe9"/><path d="M64,0C28.711,0,0,29.076,0,64.814a2.657,2.657,0,0,0,2.64,2.674h0a2.657,2.657,0,0,0,2.641-2.673h0C5.283,32.024,31.624,5.348,64,5.348s58.719,26.676,58.719,59.466a2.641,2.641,0,0,0,5.281.1q0-.051,0-.1C128,29.075,99.291,0,64,0ZM20.016,62.267H14.5a2.292,2.292,0,0,0,0,4.584h5.519a2.292,2.292,0,0,0,0-4.584Zm94.577,0h-5.518a2.292,2.292,0,0,0,0,4.584h5.519a2.292,2.292,0,0,0,0-4.584Zm-47.785-42.8V13.875a2.263,2.263,0,1,0-4.526,0v5.589a2.263,2.263,0,1,0,4.526,0ZM88.837,26.7l2.768-4.835a2.308,2.308,0,0,0-.823-3.132,2.248,2.248,0,0,0-3.076.8l-.017.03L84.921,24.4a2.308,2.308,0,0,0,.823,3.132,2.248,2.248,0,0,0,3.075-.805l.018-.031Zm20.98,11.322a2.248,2.248,0,0,0-3.062-.854l-.031.018-4.776,2.8a2.308,2.308,0,0,0-.825,3.132,2.248,2.248,0,0,0,3.063.852l.03-.017,4.776-2.8a2.308,2.308,0,0,0,.826-3.134ZM27.026,40.163l-4.789-2.777a2.248,2.248,0,0,0-3.072.82l-.017.03a2.308,2.308,0,0,0,.84,3.128l4.787,2.778a2.248,2.248,0,0,0,3.072-.82l.017-.03A2.308,2.308,0,0,0,27.026,40.163ZM41.19,19.673a2.248,2.248,0,0,0-3.067-.837l-.033.019a2.308,2.308,0,0,0-.808,3.136l2.793,4.822a2.248,2.248,0,0,0,3.067.838l.033-.019a2.308,2.308,0,0,0,.808-3.136Zm58.567,43.6-25.124-.678A10.62,10.62,0,0,0,64.3,55.285,10.445,10.445,0,0,0,54.263,66.124q0,.056,0,.111A10.675,10.675,0,0,0,65.154,76.527a10.384,10.384,0,0,0,9.721-7.934l25.006-2.246c1.2-.038,1.779-.717,1.744-1.6-.05-1.126-.672-1.517-1.869-1.481Zm-34.79,8.593a5.988,5.988,0,0,1-6.107-5.775,5.86,5.86,0,0,1,5.568-6.138l.059,0a5.988,5.988,0,0,1,6.107,5.775,5.859,5.859,0,0,1-5.568,6.136l-.059,0Z" transform="translate(-0.001)" style="fill:#7d55c7"/></svg>