<svg id="f495f861-a5c3-4980-a031-bc1f9b67cdcf" data-name="Layer 1" xmlns="http://www.w3.org/2000/svg" viewBox="0 0 128.002 75.956"><title>icons-speed-medium-teal</title><path d="M2.2,66.776l62.875-.25L64.333,2.16S34.692,5.332,17.159,25.012C1.163,42.968,2.2,66.776,2.2,66.776Z" transform="translate(0)" style="fill:#aaede9"/><path d="M64,0C28.711,0,0,29.076,0,64.814a2.657,2.657,0,0,0,2.64,2.674h0a2.657,2.657,0,0,0,2.641-2.673h0C5.281,32.024,31.622,5.348,64,5.348s58.72,26.676,58.72,59.466a2.641,2.641,0,0,0,5.281.1q0-.051,0-.1C128,29.076,99.29,0,64,0ZM20.016,62.267H14.5a2.292,2.292,0,0,0,0,4.584h5.519a2.292,2.292,0,0,0,0-4.584Zm94.577,0h-5.519a2.292,2.292,0,0,0,0,4.584h5.519a2.292,2.292,0,0,0,0-4.584Zm-47.785-42.8V13.875a2.264,2.264,0,1,0-4.527,0v5.589a2.264,2.264,0,1,0,4.527,0h0Zm23.974-.736a2.248,2.248,0,0,0-3.076.8l-.017.03L84.921,24.4a2.308,2.308,0,0,0,.823,3.132,2.248,2.248,0,0,0,3.076-.8l.017-.03L91.6,21.861a2.308,2.308,0,0,0-.818-3.133Zm19.035,19.29a2.248,2.248,0,0,0-3.062-.854l-.031.018-4.776,2.8a2.308,2.308,0,0,0-.825,3.132,2.248,2.248,0,0,0,3.063.852l.03-.017,4.776-2.8a2.308,2.308,0,0,0,.825-3.134ZM27.026,40.163l-4.789-2.777a2.248,2.248,0,0,0-3.072.82l-.017.03a2.308,2.308,0,0,0,.84,3.128l4.789,2.777a2.248,2.248,0,0,0,3.072-.82l.017-.03A2.308,2.308,0,0,0,27.026,40.163ZM41.19,19.673a2.248,2.248,0,0,0-3.067-.837l-.033.019a2.308,2.308,0,0,0-.808,3.136l2.791,4.822a2.248,2.248,0,0,0,3.067.838l.033-.019A2.308,2.308,0,0,0,43.98,24.5ZM67.751,55.428l-1.5-25.062c0-1.2-.664-1.8-1.542-1.79-1.126.012-1.538.626-1.536,1.823L61.746,55.491A10.62,10.62,0,0,0,54.135,65.6,10.445,10.445,0,0,0,64.669,75.956l.111,0A10.675,10.675,0,0,0,75.393,65.379,10.384,10.384,0,0,0,67.751,55.428ZM64.773,71.361A5.86,5.86,0,0,1,58.8,65.615v-.061a5.988,5.988,0,0,1,5.954-5.933,5.859,5.859,0,0,1,5.971,5.745v.062A5.988,5.988,0,0,1,64.773,71.361Z" transform="translate(0)" style="fill:#4ec2bf"/></svg>