<svg id="FIBRE_PRO" xmlns="http://www.w3.org/2000/svg" viewBox="0 0 240 240.318"><title>icon-title-fibre-pro</title><rect id="FIBRE_PRO_bounds" y="0.318" width="240" height="240" style="fill:#2dc5f4;opacity:0"/><g id="FIBRE_PRO_rings"><g id="FIBRE_PRO_ring3" style="opacity:0.5"><path d="M240,120A120,120,0,1,0,120,240,120,120,0,0,0,240,120" transform="translate(0)" style="fill:#fff"/><g style="opacity:0.32"><path d="M120,239.782A119.783,119.783,0,1,1,239.784,120,119.92,119.92,0,0,1,120,239.782Zm0-231.7A111.914,111.914,0,1,0,231.915,120,112.042,112.042,0,0,0,120,8.085Z" transform="translate(0)" style="fill:#755ca7"/></g></g><g id="FIBRE_PRO_ring2" style="opacity:0.699997007846832"><path d="M224.412,120A104.411,104.411,0,1,0,120,224.409,104.41,104.41,0,0,0,224.412,120" transform="translate(0)" style="fill:#fff"/><g style="opacity:0.5"><path d="M120,224.378A104.38,104.38,0,1,1,224.382,120,104.5,104.5,0,0,1,120,224.378Zm0-200.891A96.511,96.511,0,1,0,216.513,120,96.621,96.621,0,0,0,120,23.488Z" transform="translate(0)" style="fill:#755ca7"/></g></g><g id="FIBRE_PRO_ring1" style="opacity:0.899994015693665"><path d="M208.776,120A88.775,88.775,0,1,0,120,208.774,88.775,88.775,0,0,0,208.776,120" transform="translate(0)" style="fill:#fff"/><g style="opacity:0.75"><path d="M120,208.642A88.644,88.644,0,1,1,208.646,120,88.744,88.744,0,0,1,120,208.642Zm0-169.419A80.776,80.776,0,1,0,200.776,120,80.867,80.867,0,0,0,120,39.223Z" transform="translate(0)" style="fill:#755ca7;opacity:0.75"/></g></g><g id="FIBRE_PRO_bg"><path d="M192.908,120A72.907,72.907,0,1,0,120,192.907,72.909,72.909,0,0,0,192.908,120" transform="translate(0)" style="fill:#755ca7"/></g></g><g id="FIBRE_PRO_title_text"><text transform="translate(69.925 112.582)" style="font-size:20px;fill:#fff;font-family:MuseoSans-700, Museo Sans">FIBRE P<tspan x="71.4" y="0" style="letter-spacing:-0.00400390625em">R</tspan><tspan x="84.48" y="0">O</tspan></text><text transform="translate(76.409 131.566)" style="font-size:16px;fill:#fff;font-family:MuseoSans-300Italic, Museo Sans;font-style:italic"><tspan style="letter-spacing:-0.01397705078125em">F</tspan><tspan x="8.032" y="0">astest fib</tspan><tspan x="72.687" y="0" style="letter-spacing:-0.00299072265625em">r</tspan><tspan x="78.334" y="0">e </tspan><tspan x="3.784" y="18">b</tspan><tspan x="13.239" y="18" style="letter-spacing:-0.00299072265625em">r</tspan><tspan x="18.887" y="18">oadband</tspan></text></g></svg>