<svg id="d6c33478-96ac-41c7-bbe7-73a5ac014a84" class="img-responsive" data-name="Layer 1" xmlns="http://www.w3.org/2000/svg" xmlns:xlink="http://www.w3.org/1999/xlink" viewBox="0 0 111 91.94"><defs><clipPath id="clip-path" transform="translate(0 -0.06)"><rect width="111" height="92" style="fill:none"/></clipPath></defs><title>icons-reliability-98-teal_css</title><g style="clip-path:url(#clip-path)"><path d="M111,46A35.7,35.7,0,0,0,75.4,10.3H66.2a2.7,2.7,0,1,0,0,5.4h9.2a30.35,30.35,0,0,1,0,60.7H69l9.2-5.3a2.64,2.64,0,1,0-2.6-4.6L57.8,76.7A2.77,2.77,0,0,0,56.5,79a2.65,2.65,0,0,0,1.3,2.3L75.6,91.6a3.26,3.26,0,0,0,1.3.4,2.77,2.77,0,0,0,2.3-1.3,2.62,2.62,0,0,0-1-3.6L69,81.8h6.3A35.87,35.87,0,0,0,111,46" transform="translate(0 -0.06)" style="fill:#aaede9"/></g><g style="clip-path:url(#clip-path)"><path d="M53.2,10.7,35.4.4a2.62,2.62,0,0,0-3.6,1,2.62,2.62,0,0,0,1,3.6L42,10.3H35.7a35.7,35.7,0,0,0-.1,71.4h9.2a2.7,2.7,0,1,0,0-5.4H35.6a30.35,30.35,0,0,1,0-60.7H42L32.7,21a2.64,2.64,0,0,0-1,3.6A2.56,2.56,0,0,0,34,25.9a2,2,0,0,0,1.3-.4L53.1,15.2a2.77,2.77,0,0,0,1.3-2.3,2.23,2.23,0,0,0-1.2-2.2" transform="translate(0 -0.06)" style="fill:#aaede9"/></g><g style="isolation:isolate"><path d="M24.26,57.35l1.15-3.1a8.56,8.56,0,0,0,3.64.86c4.68,0,7.09-4.32,7.63-8.53h-.07C35.57,48,33.23,49,31,49c-4.82,0-8-3.64-8-8.35,0-5,3.42-8.5,8.17-8.5,5.4,0,9.5,4.72,9.5,12,0,6.52-3.56,14.29-11.45,14.29A11.08,11.08,0,0,1,24.26,57.35ZM36.9,42.42c0-3.31-2.48-7-5.72-7-3,0-4.68,2.27-4.68,5.22S28.44,46,31.72,46C34.6,46,36.9,44.22,36.9,42.42Z" transform="translate(0 -0.06)" style="fill:#2ad2c9"/><path d="M48.89,43.86A6,6,0,0,1,46,38.78c0-3.38,2.56-6.66,7.92-6.66,4.72,0,8,2.63,8,6.8,0,3.38-2.7,6.26-3,6.62,1.94,1.19,3.46,2.77,3.46,5.4,0,4-3.42,7.45-8.71,7.45-5.08,0-8.85-3.17-8.85-7.77C44.82,46.74,48.2,44.32,48.89,43.86Zm2.63,1.51c-.83.58-3.06,2.3-3.06,5a5,5,0,0,0,5.22,4.79c2.66,0,5-1.73,5-4.36S54.94,47,51.52,45.37Zm4.72-1.22a7.52,7.52,0,0,0,2.23-5c0-2.34-1.87-3.82-4.54-3.82s-4.36,1.58-4.36,3.53C49.57,41.66,53,42.74,56.23,44.14Z" transform="translate(0 -0.06)" style="fill:#2ad2c9"/><path d="M66.35,37.45a5.46,5.46,0,1,1,5.44,5.33A5.39,5.39,0,0,1,66.35,37.45Zm20-4.9h3.38L70.27,58H66.89Zm-11.88,4.9a2.66,2.66,0,1,0-5.33,0,2.66,2.66,0,1,0,5.33,0Zm10.4,10.29a5.33,5.33,0,1,1,0,10.65,5.33,5.33,0,1,1,0-10.65Zm0,8a2.64,2.64,0,0,0,2.66-2.66,2.66,2.66,0,1,0-5.33,0A2.61,2.61,0,0,0,84.85,55.73Z" transform="translate(0 -0.06)" style="fill:#2ad2c9"/></g></svg>