<svg id="ADSL" xmlns="http://www.w3.org/2000/svg" viewBox="0 0 240 240"><title>icon-title-adsl</title><rect id="ADSL_bounds" width="240" height="240" style="fill:#2fc5f4;opacity:0"/><g id="ADSL_rings"><g id="ADSL_ring1" style="opacity:0.899994015693665"><path d="M208.776,120A88.775,88.775,0,1,0,120,208.774,88.775,88.775,0,0,0,208.776,120" transform="translate(0 -0.318)" style="fill:#fff"/><g style="opacity:0.75"><path d="M120,208.642A88.644,88.644,0,1,1,208.646,120,88.744,88.744,0,0,1,120,208.642Zm0-169.419A80.776,80.776,0,1,0,200.776,120,80.867,80.867,0,0,0,120,39.223Z" transform="translate(0 -0.318)" style="fill:#f48575;opacity:0.75"/></g></g><g id="ADSL_bg"><path d="M192.908,120A72.907,72.907,0,1,0,120,192.907,72.909,72.909,0,0,0,192.908,120" transform="translate(0 -0.318)" style="fill:#f48575"/></g></g><g id="ADSL_title_text"><text transform="translate(95.635 112.264)" style="font-size:20px;fill:#fff;font-family:MuseoSans-700, Museo Sans">ADSL</text><text transform="translate(101.032 131.248)" style="font-size:16px;fill:#fff;font-family:MuseoSans-300Italic, Museo Sans;font-style:italic">Basic <tspan x="-20.839" y="18">b</tspan><tspan x="-11.384" y="18" style="letter-spacing:-0.00299072265625em">r</tspan><tspan x="-5.736" y="18">oadband</tspan></text></g></svg>