<svg id="fddc98f2-d0b0-4f33-949d-6924b9f001b9" data-name="Layer 1" xmlns="http://www.w3.org/2000/svg" viewBox="0 0 111.07 91.981"><title>icons-reliability-96-teal</title><path d="M111,46A35.7,35.7,0,0,0,75.374,10.3H66.143a2.665,2.665,0,1,0,0,5.331h9.231a30.363,30.363,0,0,1,0,60.726H69.048l9.215-5.329A2.664,2.664,0,0,0,75.6,66.414l-17.81,10.3a2.667,2.667,0,0,0,0,4.616L75.6,91.637a2.665,2.665,0,0,0,2.661-4.618L69.05,81.691h6.323A35.7,35.7,0,0,0,111,46ZM53.207,10.661,35.4.358a2.664,2.664,0,1,0-2.661,4.616l9.212,5.33H35.624a35.694,35.694,0,0,0,0,71.388h9.231a2.666,2.666,0,1,0,0-5.331H35.624a30.363,30.363,0,0,1,0-60.726H41.95l-9.213,5.33A2.664,2.664,0,1,0,35.4,25.58l17.811-10.3a2.667,2.667,0,0,0,0-4.616Z" transform="translate(0.07 -0.002)" style="fill:#aaede9"/><path d="M23.3,57.354l1.152-3.1a8.556,8.556,0,0,0,3.636.864c4.679,0,7.091-4.319,7.631-8.531h-.072c-1.044,1.44-3.384,2.376-5.615,2.376-4.824,0-8.027-3.636-8.027-8.351,0-5,3.42-8.5,8.171-8.5,5.4,0,9.5,4.716,9.5,11.986,0,6.516-3.563,14.29-11.446,14.29A11.078,11.078,0,0,1,23.3,57.354ZM35.932,42.416c0-3.312-2.483-7.02-5.723-7.02-2.952,0-4.679,2.268-4.679,5.22,0,3.1,1.943,5.363,5.219,5.363C33.628,45.979,35.932,44.216,35.932,42.416Zm7.994,3.995c0-6.515,3.564-14.29,11.447-14.29A11.265,11.265,0,0,1,60.3,33.165l-1.151,3.06a8.85,8.85,0,0,0-3.635-.828c-4.68,0-7.091,4.319-7.631,8.531h.072a7.311,7.311,0,0,1,5.615-2.412c4.823,0,8.026,3.672,8.026,8.388,0,5-3.419,8.494-8.17,8.494C47.993,58.4,43.926,53.646,43.926,46.411ZM58.072,49.9a5.007,5.007,0,0,0-5.219-5.364c-2.88,0-5.184,1.729-5.184,3.564,0,3.312,2.484,7.019,5.723,7.019C56.308,55.122,58.072,52.854,58.072,49.9Zm7.021-12.452a5.455,5.455,0,1,1,5.581,5.326h-.145A5.386,5.386,0,0,1,65.093,37.448Zm19.978-4.9h3.384L69.017,57.966H65.633Zm-11.878,4.9a2.664,2.664,0,1,0-5.327-.1q0,.052,0,.1a2.664,2.664,0,1,0,5.327.1Q73.194,37.5,73.193,37.448ZM83.6,47.743A5.329,5.329,0,1,1,83.892,58.4q-.146,0-.292,0a5.329,5.329,0,0,1-.292-10.654Q83.454,47.739,83.6,47.743Zm0,7.991a2.636,2.636,0,0,0,2.664-2.608q0-.028,0-.056a2.664,2.664,0,1,0-5.327-.1q0,.052,0,.1A2.613,2.613,0,0,0,83.5,55.734Z" transform="translate(0.07 -0.002)" style="fill:#4ec2bf"/></svg>