<svg id="VDSL" xmlns="http://www.w3.org/2000/svg" viewBox="0 0 240 240"><defs><style>.cls-1{fill:#2dc5f4;opacity:0;}.cls-2{opacity:0.7;}.cls-11,.cls-12,.cls-3,.cls-7{fill:#fff;}.cls-3,.cls-5{stroke:#fff;stroke-miterlimit:10;stroke-width:4px;}.cls-4{opacity:0.5;}.cls-10,.cls-5,.cls-9{fill:#4dc2be;}.cls-6{opacity:0.9;}.cls-8{opacity:0.9;}.cls-9{opacity:0.75;}.cls-11{font-size:20px;font-family:MuseoSans-700, Museo Sans;}.cls-12{font-size:16px;font-family:MuseoSans-300Italic, Museo Sans;font-style:italic;}.cls-13{letter-spacing:-0.003em;}</style></defs><title>icon-title-vdsl</title><rect id="VDSL_bounds" class="cls-1" width="240" height="240"/><g id="VDSL_title_text"><g id="VDSL_rings"><g id="VDSL_ring2" class="cls-2"><path class="cls-3" d="M224.412,120A104.411,104.411,0,1,0,120,224.409,104.41,104.41,0,0,0,224.412,120" transform="translate(0 -0.205)"/><g class="cls-4"><path class="cls-5" d="M120,224.378A104.38,104.38,0,1,1,224.382,120,104.5,104.5,0,0,1,120,224.378Zm0-200.891A96.511,96.511,0,1,0,216.513,120,96.621,96.621,0,0,0,120,23.488Z" transform="translate(0 -0.205)"/></g></g><g id="VDSL_ring1" class="cls-6"><path class="cls-7" d="M208.776,120A88.775,88.775,0,1,0,120,208.774,88.775,88.775,0,0,0,208.776,120" transform="translate(0 -0.205)"/><g class="cls-8"><path class="cls-9" d="M120,208.642A88.644,88.644,0,1,1,208.646,120,88.744,88.744,0,0,1,120,208.642Zm0-169.419A80.776,80.776,0,1,0,200.776,120,80.867,80.867,0,0,0,120,39.223Z" transform="translate(0 -0.205)"/></g></g><g id="VDSL_bg"><path class="cls-10" d="M192.908,120A72.907,72.907,0,1,0,120,192.907,72.909,72.909,0,0,0,192.908,120" transform="translate(0 -0.205)"/></g></g><text class="cls-11" transform="translate(95.565 112.377)">VDSL</text><text class="cls-12" transform="translate(85.2 131.362)">Part-fib<tspan class="cls-13" x="55.104" y="0">r</tspan><tspan x="60.752" y="0">e </tspan><tspan x="-5.008" y="18">b</tspan><tspan class="cls-13" x="4.448" y="18">r</tspan><tspan x="10.096" y="18">oadband</tspan></text></g></svg>