<svg id="3203e310-e880-440c-8e6c-c8060d37e704" data-name="Layer 1" xmlns="http://www.w3.org/2000/svg" xmlns:xlink="http://www.w3.org/1999/xlink" viewBox="0 0 111 91.996"><defs><clipPath id="9f29f7be-034b-4548-a58b-62e00009615b" transform="translate(0.001 0.001)"><rect width="110.999" height="91.995" style="fill:none"/></clipPath></defs><title>icons-reliability-97-teal</title><g style="clip-path:url(#9f29f7be-034b-4548-a58b-62e00009615b)"><path d="M111,46A35.7,35.7,0,0,0,75.373,10.3h-9.23a2.665,2.665,0,0,0,0,5.33h9.23a30.363,30.363,0,0,1,0,60.726H69.048l9.215-5.33A2.664,2.664,0,0,0,75.6,66.414L57.79,76.716a2.667,2.667,0,0,0,0,4.616L75.6,91.638a2.665,2.665,0,0,0,2.661-4.619L69.05,81.691h6.323A35.7,35.7,0,0,0,111,46" transform="translate(0.001 0.001)" style="fill:#aaede9"/><path d="M53.207,10.661,35.4.357a2.664,2.664,0,0,0-2.661,4.617l9.212,5.33H35.624a35.694,35.694,0,0,0,0,71.387h9.231a2.666,2.666,0,0,0,0-5.331H35.624a30.363,30.363,0,0,1,0-60.726H41.95l-9.214,5.33A2.664,2.664,0,1,0,35.4,25.58l17.811-10.3a2.667,2.667,0,0,0,0-4.616" transform="translate(0.001 0.001)" style="fill:#aaede9"/></g><path d="M25.3,57.353l1.152-3.1a8.556,8.556,0,0,0,3.636.864c4.679,0,7.091-4.319,7.631-8.531h-.072c-1.044,1.44-3.384,2.375-5.615,2.375-4.824,0-8.027-3.635-8.027-8.351,0-5,3.42-8.5,8.171-8.5,5.4,0,9.5,4.715,9.5,11.986,0,6.516-3.563,14.29-11.446,14.29A11.078,11.078,0,0,1,25.3,57.353ZM37.932,42.416c0-3.312-2.483-7.02-5.723-7.02-2.952,0-4.679,2.268-4.679,5.22,0,3.1,1.943,5.363,5.219,5.363C35.628,45.979,37.932,44.215,37.932,42.416Z" transform="translate(0.001 0.001)" style="fill:#2ad2c9"/><path d="M56.8,37.952a13.04,13.04,0,0,1,1.476-2.339V35.54a11.533,11.533,0,0,1-1.872.108H45.062v-3.1h16.99V35L50.569,57.966H46.9Z" transform="translate(0.001 0.001)" style="fill:#2ad2c9"/><path d="M64.573,37.448a5.455,5.455,0,1,1,5.436,5.328A5.386,5.386,0,0,1,64.573,37.448Zm19.978-4.9h3.384L68.5,57.966H65.113Zm-11.878,4.9a2.664,2.664,0,1,0-5.328,0,2.664,2.664,0,0,0,5.328,0Zm10.4,10.295a5.329,5.329,0,1,1,0,10.654,5.329,5.329,0,1,1,0-10.654Zm0,7.991a2.636,2.636,0,0,0,2.664-2.664,2.664,2.664,0,1,0-5.328,0A2.614,2.614,0,0,0,83.075,55.734Z" transform="translate(0.001 0.001)" style="fill:#2ad2c9"/></svg>