<svg id="8c43ce98-dfc4-4f4f-8470-e1a295d04cdb" data-name="Layer 1" xmlns="http://www.w3.org/2000/svg" viewBox="0 0 111.07 91.981"><title>icons-reliability-98-light-red</title><path d="M111,46A35.7,35.7,0,0,0,75.374,10.3H66.143a2.665,2.665,0,1,0,0,5.331h9.231a30.363,30.363,0,0,1,0,60.726H69.048l9.215-5.329A2.664,2.664,0,0,0,75.6,66.414l-17.81,10.3a2.667,2.667,0,0,0,0,4.616L75.6,91.637a2.665,2.665,0,0,0,2.661-4.618L69.05,81.691h6.323A35.7,35.7,0,0,0,111,46ZM53.207,10.661,35.4.358a2.664,2.664,0,1,0-2.661,4.616l9.212,5.33H35.624a35.694,35.694,0,0,0,0,71.388h9.231a2.666,2.666,0,1,0,0-5.331H35.624a30.363,30.363,0,0,1,0-60.726H41.95l-9.213,5.33A2.664,2.664,0,1,0,35.4,25.58l17.811-10.3a2.667,2.667,0,0,0,0-4.616Z" transform="translate(0.07 -0.002)" style="fill:#ffc2b9"/><path d="M23.874,57.354l1.152-3.1a8.556,8.556,0,0,0,3.636.864c4.679,0,7.091-4.319,7.631-8.531h-.072c-1.044,1.44-3.384,2.376-5.615,2.376-4.824,0-8.027-3.636-8.027-8.351,0-5,3.42-8.5,8.171-8.5,5.4,0,9.5,4.716,9.5,11.986,0,6.516-3.563,14.29-11.446,14.29A11.078,11.078,0,0,1,23.874,57.354ZM36.508,42.416c0-3.312-2.483-7.02-5.723-7.02-2.952,0-4.679,2.268-4.679,5.22,0,3.1,1.943,5.363,5.219,5.363C34.2,45.979,36.508,44.216,36.508,42.416Zm10.55,1.439a5.992,5.992,0,0,1-2.844-5.075c0-3.384,2.556-6.659,7.919-6.659,4.715,0,7.991,2.628,7.991,6.8,0,3.384-2.7,6.264-3.023,6.624,1.943,1.188,3.455,2.771,3.455,5.4,0,3.96-3.42,7.451-8.71,7.451-5.076,0-8.855-3.167-8.855-7.774C42.99,46.735,46.374,44.323,47.058,43.855Zm2.628,1.512c-.828.576-3.06,2.3-3.06,5.04A4.953,4.953,0,0,0,51.735,55.2l.11,0c2.664,0,5.039-1.728,5.039-4.355,0-2.739-3.784-3.816-7.2-5.472ZM54.4,44.144a7.526,7.526,0,0,0,2.231-5c0-2.34-1.871-3.816-4.535-3.816-2.808,0-4.355,1.584-4.355,3.528C47.742,41.66,51.125,42.739,54.4,44.144Zm10.118-6.7A5.455,5.455,0,1,1,70.1,42.774h-.145A5.386,5.386,0,0,1,64.518,37.448Zm19.978-4.9H87.88L68.441,57.966H65.058Zm-11.879,4.9a2.664,2.664,0,1,0-5.327-.1q0,.052,0,.1a2.664,2.664,0,1,0,5.327.1Q72.618,37.5,72.617,37.448Zm10.4,10.3A5.329,5.329,0,0,1,83.309,58.4q-.146,0-.292,0a5.329,5.329,0,1,1-.292-10.654Q82.871,47.739,83.017,47.743Zm0,7.991a2.635,2.635,0,0,0,2.663-2.607q0-.029,0-.057a2.664,2.664,0,1,0-5.327-.1q0,.052,0,.1a2.614,2.614,0,0,0,2.563,2.664h.1Z" transform="translate(0.07 -0.002)" style="fill:#ff8674"/></svg>