<svg id="FIBRE" xmlns="http://www.w3.org/2000/svg" viewBox="0 0 240 240"><title>icon-title-fibre</title><rect id="FIBRE_bounds" width="240" height="240" style="fill:#2fc5f4;opacity:0"/><g id="FIBRE_title_text"><g id="FIBRE_rings"><g id="FIBRE_ring2" style="opacity:0.699997007846832"><path d="M224.412,120A104.411,104.411,0,1,0,120,224.409,104.41,104.41,0,0,0,224.412,120" transform="translate(0 -0.205)" style="fill:#fff"/><g style="opacity:0.5"><path d="M120,224.378A104.38,104.38,0,1,1,224.382,120,104.5,104.5,0,0,1,120,224.378Zm0-200.891A96.511,96.511,0,1,0,216.513,120,96.621,96.621,0,0,0,120,23.488Z" transform="translate(0 -0.205)" style="fill:#4ec2be"/></g></g><g id="FIBRE_ring1" style="opacity:0.899994015693665"><path d="M208.776,120A88.775,88.775,0,1,0,120,208.774,88.775,88.775,0,0,0,208.776,120" transform="translate(0 -0.205)" style="fill:#fff"/><g style="opacity:0.9"><path d="M120,208.642A88.644,88.644,0,1,1,208.646,120,88.744,88.744,0,0,1,120,208.642Zm0-169.419A80.776,80.776,0,1,0,200.776,120,80.867,80.867,0,0,0,120,39.223Z" transform="translate(0 -0.205)" style="fill:#4ec2be;opacity:0.75"/></g></g><g id="FIBRE_bg"><path d="M192.908,120A72.907,72.907,0,1,0,120,192.907,72.909,72.909,0,0,0,192.908,120" transform="translate(0 -0.205)" style="fill:#4ec2be"/></g></g><text transform="translate(90.482 113.797)" style="font-size:22px;fill:#fff;font-family:MuseoSans-700, Museo Sans">FIBRE</text><text transform="translate(102.039 131.362)" style="font-size:16px;fill:#fff;font-family:MuseoSans-300Italic, Museo Sans;font-style:italic">Fib<tspan x="21.424" y="0" style="letter-spacing:-0.00299072265625em">r</tspan><tspan x="27.071" y="0">e </tspan><tspan x="-21.847" y="18">b</tspan><tspan x="-12.392" y="18" style="letter-spacing:-0.00299072265625em">r</tspan><tspan x="-6.744" y="18">oadband </tspan></text></g></svg>