<svg id="Layer_1" data-name="Layer 1" xmlns="http://www.w3.org/2000/svg" xmlns:xlink="http://www.w3.org/1999/xlink" viewBox="0 0 438.943 438.944"><defs><clipPath id="clip-path" transform="translate(-9 -5)"><rect y="-2" width="456.944" height="446.944" style="fill:none"/></clipPath><clipPath id="clip-path-2" transform="translate(-9 -5)"><rect x="27.02" y="24.599" width="402.905" height="392.905" style="fill:none"/></clipPath><clipPath id="clip-path-3" transform="translate(-9 -5)"><rect x="55.704" y="51.957" width="347.603" height="337.603" style="fill:none"/></clipPath></defs><title>askforbetter-logo</title><g style="opacity:0.899994015693665"><g style="opacity:0.5"><g style="clip-path:url(#clip-path)"><path d="M228.472,436.835c117.285,0,212.362-95.078,212.362-212.362S345.757,12.11,228.472,12.11,16.11,107.188,16.11,224.473s95.077,212.362,212.362,212.362" transform="translate(-9 -5)" style="fill:#fff"/><circle cx="219.471" cy="219.472" r="212.362" style="fill:none;stroke:#7d55c7;stroke-width:14.2189998626709px"/></g></g><g style="opacity:0.600005984306336"><g style="clip-path:url(#clip-path-2)"><path d="M228.472,409.288c102.3,0,185.236-82.933,185.236-185.236S330.775,38.816,228.472,38.816,43.236,121.749,43.236,224.052s82.933,185.236,185.236,185.236" transform="translate(-9 -5)" style="fill:#fff"/><circle cx="219.471" cy="219.052" r="185.236" style="fill:none;stroke:#7d55c7;stroke-width:14.4329996109009px"/></g></g><g style="opacity:0.75"><g style="clip-path:url(#clip-path-3)"><path d="M229.505,381.267A157.509,157.509,0,1,0,72,223.758,157.509,157.509,0,0,0,229.505,381.267" transform="translate(-9 -5)" style="fill:#fff"/><circle cx="220.505" cy="218.758" r="157.509" style="fill:none;stroke:#7d55c7;stroke-width:14.585000038147px"/></g></g><path d="M229.326,359.961A136.984,136.984,0,1,0,92.342,222.977,136.984,136.984,0,0,0,229.326,359.961" transform="translate(-9 -5)" style="fill:#7d55c7"/></g><path d="M229.326,359.961A136.984,136.984,0,1,0,92.342,222.977,136.984,136.984,0,0,0,229.326,359.961" transform="translate(-9 -5)" style="fill:#7d55c7"/><path d="M185.034,272.255h-6.385l-1.68,4.872h-2.448l6.1-16.945h2.5l6.1,16.945h-2.472Zm-3.192-9.745s-.384,1.536-.672,2.4l-1.9,5.376h5.137l-1.873-5.376c-.288-.864-.648-2.4-.648-2.4Z" transform="translate(-9 -5)" style="fill:#fff"/><path d="M191.849,273.984a5.211,5.211,0,0,0,3.48,1.416c1.008,0,2.017-.528,2.017-1.513,0-2.232-6.241-1.776-6.241-5.736,0-2.208,1.968-3.456,4.393-3.456a5.46,5.46,0,0,1,3.912,1.344l-.936,1.752a4.444,4.444,0,0,0-3-1.08c-1.008,0-1.992.433-1.992,1.488,0,2.185,6.241,1.7,6.241,5.688,0,2.017-1.728,3.528-4.393,3.528a6.53,6.53,0,0,1-4.608-1.776Z" transform="translate(-9 -5)" style="fill:#fff"/><path d="M202.937,260.182h2.328v9.265h1.7l3.313-4.464h2.64l-4.032,5.353v.048l4.488,6.744h-2.712l-3.648-5.712h-1.752v5.712h-2.328Z" transform="translate(-9 -5)" style="fill:#fff"/><path d="M223.336,267.023h-1.512v-1.872h1.512v-.576c0-4.009,3.024-4.513,4.561-4.513a4.983,4.983,0,0,1,.888.072v1.992a3.388,3.388,0,0,0-.6-.048,2.308,2.308,0,0,0-2.544,2.544v.528h2.88v1.872h-2.88v10.1h-2.3Z" transform="translate(-9 -5)" style="fill:#fff"/><path d="M236.9,264.695a6.363,6.363,0,1,1-6.552,6.336A6.335,6.335,0,0,1,236.9,264.695Zm0,10.705a4.348,4.348,0,1,0-4.176-4.369A4.2,4.2,0,0,0,236.9,275.4Z" transform="translate(-9 -5)" style="fill:#fff"/><path d="M246.688,264.983h2.256V267.1a8.742,8.742,0,0,1-.048.912h.048a3.9,3.9,0,0,1,4.44-3.121v2.3a3.335,3.335,0,0,0-.672-.072,3.684,3.684,0,0,0-3.408,2.856,7.39,7.39,0,0,0-.288,2.185v4.968h-2.328Z" transform="translate(-9 -5)" style="fill:#fff"/><path d="M262.792,260.182h2.353v2.376h-2.353Zm.024,4.8h2.328v12.145h-2.328Z" transform="translate(-9 -5)" style="fill:#fff"/><path d="M269.776,267.023h-1.584v-1.872h1.656v-3.5H272.1v3.5h2.929v1.872H272.1v5.4a2.414,2.414,0,0,0,2.593,2.736,2.807,2.807,0,0,0,.552-.048v2.063a6.277,6.277,0,0,1-.816.049c-1.56,0-4.656-.48-4.656-4.537Z" transform="translate(-9 -5)" style="fill:#fff"/><path d="M278.344,274.656h2.448v2.472h-2.448Z" transform="translate(-9 -5)" style="fill:#fff"/><path d="M146.364,164.6h15.779c8.58,0,14.579,3.84,14.579,11.22a10.476,10.476,0,0,1-4.979,9.12v.12c4.919,1.5,6.72,5.879,6.72,9.66,0,9.359-7.8,12.779-16.319,12.779H146.364Zm15.9,16.62c2.64,0,3.78-1.92,3.78-3.96,0-1.98-1.14-3.66-3.959-3.66h-5.22v7.62Zm.9,17.279a4.262,4.262,0,0,0,4.56-4.5,4.125,4.125,0,0,0-4.5-4.38h-6.359v8.88Z" transform="translate(-9 -5)" style="fill:#fff"/><path d="M197.363,175.881c9.12,0,14.279,6.36,14.279,14.939,0,1.02-.24,3.24-.24,3.24H191.9c.78,3.78,3.9,5.52,7.2,5.52,4.439,0,8.52-3.12,8.52-3.12l3.84,7.26a20.866,20.866,0,0,1-13.2,4.5c-11.04,0-16.979-7.979-16.979-16.2C181.283,182.961,187.4,175.881,197.363,175.881Zm3.84,12.239a4.206,4.206,0,0,0-4.08-4.439c-3,0-4.44,2.16-4.98,4.439Z" transform="translate(-9 -5)" style="fill:#fff"/><path d="M217.642,185.241h-3.96v-8.1h4.26v-8.879h10.08v8.879H234.5v8.1h-6.479v9.48c0,3.479,3.54,3.959,5.52,3.959a13.809,13.809,0,0,0,1.38-.06v9a20,20,0,0,1-2.819.18c-4.92,0-14.459-1.32-14.459-11.7Z" transform="translate(-9 -5)" style="fill:#fff"/><path d="M241.343,185.241h-3.96v-8.1h4.261v-8.879h10.079v8.879H258.2v8.1h-6.479v9.48c0,3.479,3.54,3.959,5.52,3.959a13.809,13.809,0,0,0,1.38-.06v9a20,20,0,0,1-2.819.18c-4.92,0-14.46-1.32-14.46-11.7Z" transform="translate(-9 -5)" style="fill:#fff"/><path d="M276.141,175.881c9.12,0,14.279,6.36,14.279,14.939,0,1.02-.24,3.24-.24,3.24h-19.5c.78,3.78,3.9,5.52,7.2,5.52,4.439,0,8.52-3.12,8.52-3.12l3.84,7.26a20.864,20.864,0,0,1-13.2,4.5c-11.04,0-16.979-7.979-16.979-16.2C260.062,182.961,266.181,175.881,276.141,175.881Zm3.84,12.239a4.206,4.206,0,0,0-4.08-4.439c-3,0-4.439,2.16-4.979,4.439Z" transform="translate(-9 -5)" style="fill:#fff"/><path d="M293.662,176.6h9.96v5.22a16.343,16.343,0,0,1-.12,1.92h.12c1.319-4.2,5.22-7.68,9.839-7.68a7.031,7.031,0,0,1,1.2.12v10.2a11.031,11.031,0,0,0-2.1-.18c-2.46,0-6.479.78-7.979,5.4a14,14,0,0,0-.54,4.2v11.7h-10.38Z" transform="translate(-9 -5)" style="fill:#fff"/><path d="M159.2,224.985h7.978v23.749H159.2Zm.092-9.222h7.793v6.225h-7.793Z" transform="translate(-9 -5)" style="fill:#fff"/><path d="M173.721,240.434a9.994,9.994,0,0,0,6.041,2.4c1.2,0,2.352-.323,2.352-1.106,0-2.075-11.113-2.306-11.113-10.053,0-4.473,4.289-7.24,9.776-7.24,5.533,0,8.346,2.721,8.346,2.721l-2.721,5.672a9.482,9.482,0,0,0-5.625-1.937c-1.2,0-2.352.323-2.352,1.153,0,1.8,11.113,2.075,11.113,9.729,0,4.058-3.6,7.517-9.729,7.517a14.3,14.3,0,0,1-9.5-3.5Z" transform="translate(-9 -5)" style="fill:#fff"/><path d="M202.583,215.764h7.978v10.421c0,1.2-.092,2.03-.092,2.03h.092a8.153,8.153,0,0,1,7.239-3.782c4.8,0,8.531,2.213,8.531,8.9v15.4h-7.977V234.808c0-2.214-.876-3.136-2.628-3.136a4.792,4.792,0,0,0-4.75,3.5,9.174,9.174,0,0,0-.415,3.043v10.514h-7.978Z" transform="translate(-9 -5)" style="fill:#fff"/><path d="M242.559,224.433c7.009,0,10.975,4.888,10.975,11.482,0,.784-.185,2.49-.185,2.49H238.363a5.3,5.3,0,0,0,5.533,4.242,12.448,12.448,0,0,0,6.548-2.4l2.951,5.579a16.034,16.034,0,0,1-10.145,3.459c-8.485,0-13.05-6.133-13.05-12.45C230.2,229.874,234.9,224.433,242.559,224.433Zm2.951,9.407a3.233,3.233,0,0,0-3.136-3.412c-2.306,0-3.412,1.66-3.827,3.412Z" transform="translate(-9 -5)" style="fill:#fff"/><path d="M256.944,224.985H264.6V229a12.618,12.618,0,0,1-.092,1.476h.092a8.244,8.244,0,0,1,7.563-5.9,5.376,5.376,0,0,1,.923.093V232.5a8.483,8.483,0,0,0-1.614-.139,5.994,5.994,0,0,0-6.133,4.15,10.774,10.774,0,0,0-.415,3.228v8.992h-7.978Z" transform="translate(-9 -5)" style="fill:#fff"/><path d="M288.344,224.433c7.009,0,10.975,4.888,10.975,11.482,0,.784-.185,2.49-.185,2.49H284.148a5.3,5.3,0,0,0,5.533,4.242,12.452,12.452,0,0,0,6.548-2.4l2.951,5.579a16.034,16.034,0,0,1-10.145,3.459c-8.484,0-13.05-6.133-13.05-12.45C275.986,229.874,280.689,224.433,288.344,224.433Zm2.951,9.407a3.233,3.233,0,0,0-3.136-3.412c-2.306,0-3.413,1.66-3.828,3.412Z" transform="translate(-9 -5)" style="fill:#fff"/></svg>