<svg id="ac967c8e-3b9d-4dfe-acfa-e46854568bb7" data-name="87e036fc-ceb6-4133-bfd6-94a88eea1966" xmlns="http://www.w3.org/2000/svg" viewBox="0 0 498.841 166.43"><title>chorus-logo</title><path d="M100.761,56.41l-9.35,9.37a19.225,19.225,0,1,0,0,34.69l9.35,9.37a31.716,31.716,0,0,1-17.62,5.33,32.045,32.045,0,0,1,0-64.09A31.716,31.716,0,0,1,100.761,56.41Zm27.37,80.86a70.485,70.485,0,1,1,0-108.29l9.07-9.09a83.305,83.305,0,1,0,0,126.47l-9.07-9.09ZM83.141,25.45a57.675,57.675,0,1,0,35.9,102.71l-9.1-9.12a44.855,44.855,0,1,1,0-71.83l9.1-9.12A57.2,57.2,0,0,0,83.141,25.45Z" style="fill:#fff"/><path d="M166.281,83.13a83.054,83.054,0,0,1-20.03,54.17l-9.07-9.09a70.468,70.468,0,0,0,0-90.17l9.07-9.09A83.061,83.061,0,0,1,166.281,83.13Zm-63.95,0a19.158,19.158,0,0,1-1.88,8.28l9.36,9.37a32,32,0,0,0,0-35.31l-9.36,9.37A19.17,19.17,0,0,1,102.331,83.13Zm25.75-35.98-9.1,9.13a44.815,44.815,0,0,1,0,53.69l9.1,9.13A57.586,57.586,0,0,0,128.081,47.15Z" style="fill:#35a6e8"/><path d="M241.761,114.72c-22.18,0-35.34-15.08-35.34-34.64,0-19.66,14.86-35.57,37.57-35.57,7.74,0,14.32,1.45,18.46,3.74l-.1,11.76a33.523,33.523,0,0,0-17.73-4.89c-16.23,0-24.3,11.55-24.3,24.44,0,13.84,8.92,24.55,22.71,24.55a36.46,36.46,0,0,0,17.83-4.58l3.71,9.16a46.534,46.534,0,0,1-22.81,6.03Zm58.91-1.04V84.97c0-5.51-.85-10.71-7.64-10.71-4.35,0-8.81,2.39-12.21,5.2v34.22h-12.73V40.04h12.73V69.79c4.67-3.75,10.19-6.45,16.66-6.45,7.75,0,16.03,3.64,16.03,18.1v32.24Zm43.18-40.46c-8.06,0-11.99,6.66-11.99,15.81,0,9.57,4.56,16.02,12.31,16.02,7.96,0,11.99-6.76,11.99-16.02C356.161,79.56,351.7,73.22,343.851,73.22Zm18.26,34.43c-4.46,4.47-10.62,7.07-18.15,7.07-7.01,0-12.95-2.18-17.3-6.13-4.99-4.58-7.75-11.34-7.75-19.25,0-7.7,2.65-14.35,7.32-19.03a24.82,24.82,0,0,1,17.83-6.97c7.75,0,14.01,2.6,18.47,7.07,4.35,4.58,6.69,11.03,6.69,18.52s-2.44,14.14-7.11,18.72Zm41.21-31.62a11.692,11.692,0,0,0-5.83-1.56c-3.19,0-5.95,1.14-9.77,4.37v34.84h-12.73V64.48h10.72l1.52,4.33c5.09-4.47,8.98-5.47,13.65-5.47a12.952,12.952,0,0,1,7.22,2.08Zm42.56,37.65-2.23-4.89a22.955,22.955,0,0,1-15.39,5.93c-6.57,0-16.98-3.33-16.98-19.14V64.48h12.74V94.85c0,6.14,2.87,9.99,9.02,9.99a14.93,14.93,0,0,0,9.66-4.06V64.48h12.73v35.58c0,7.59.11,11.13.96,13.62Zm32.58,1.04c-8.28,0-14.43-2.08-18.57-4.57l4.14-9.16a24.646,24.646,0,0,0,13.48,4.37c5.2,0,8.59-1.87,8.59-5.2,0-8.84-23.13-5.51-23.13-22.26,0-8.53,6.9-14.56,19-14.56a42.21,42.21,0,0,1,14.64,2.49v10.4c-4.24-1.66-8.81-3.22-14.22-3.22-4.35,0-7.11,1.35-7.11,4.27,0,7.8,23.56,5.2,23.56,22.15,0,11.03-9.55,15.29-20.38,15.29Z" style="fill:#fff"/></svg>