<svg id="d6c33478-96ac-41c7-bbe7-73a5ac014a84" data-name="Layer 1" xmlns="http://www.w3.org/2000/svg" viewBox="0 0 111.07 91.981"><title>icons-reliability-95-teal</title><path d="M111,46A35.7,35.7,0,0,0,75.374,10.3H66.143a2.665,2.665,0,1,0,0,5.331h9.231a30.363,30.363,0,0,1,0,60.726H69.048l9.215-5.329A2.664,2.664,0,0,0,75.6,66.414l-17.81,10.3a2.667,2.667,0,0,0,0,4.616L75.6,91.637a2.665,2.665,0,0,0,2.661-4.618L69.05,81.691h6.323A35.7,35.7,0,0,0,111,46ZM53.207,10.661,35.4.358a2.664,2.664,0,1,0-2.661,4.616l9.212,5.33H35.624a35.694,35.694,0,0,0,0,71.388h9.231a2.666,2.666,0,1,0,0-5.331H35.624a30.363,30.363,0,0,1,0-60.726H41.95l-9.213,5.33A2.664,2.664,0,1,0,35.4,25.58l17.811-10.3a2.667,2.667,0,0,0,0-4.616Z" transform="translate(0.07 -0.002)" style="fill:#aaede9"/><path d="M24.306,57.354l1.152-3.1a8.556,8.556,0,0,0,3.636.864c4.679,0,7.091-4.319,7.631-8.531h-.072c-1.044,1.44-3.384,2.376-5.616,2.376-4.823,0-8.027-3.636-8.027-8.351,0-5,3.419-8.5,8.171-8.5,5.4,0,9.5,4.716,9.5,11.986,0,6.516-3.563,14.29-11.446,14.29A11.078,11.078,0,0,1,24.306,57.354ZM36.94,42.416c0-3.312-2.483-7.02-5.723-7.02-2.952,0-4.679,2.268-4.679,5.22,0,3.1,1.943,5.363,5.219,5.363C34.636,45.979,36.94,44.216,36.94,42.416Zm8.86,9.862a7.285,7.285,0,0,0,5.579,2.736c2.988,0,5.58-2.052,5.58-5.147,0-3.06-2.52-5.22-5.8-5.22a8.144,8.144,0,0,0-4.283,1.26l-2.052-.756,1.26-12.6H58.9v3.1H49.181l-.612,5.363a7.559,7.559,0,0,1-.18,1.332h.072a7.31,7.31,0,0,1,3.276-.792c5.364,0,8.855,3.708,8.855,8.279,0,4.9-3.852,8.566-9,8.566a9.87,9.87,0,0,1-7.775-3.527Zm18.286-14.83a5.455,5.455,0,1,1,5.581,5.326h-.146A5.385,5.385,0,0,1,64.086,37.448Zm19.977-4.9h3.384L68.009,57.966H64.625Zm-11.878,4.9a2.664,2.664,0,1,0-5.327-.1q0,.052,0,.1a2.664,2.664,0,1,0,5.327.1Q72.186,37.5,72.185,37.448Zm10.4,10.295A5.329,5.329,0,1,1,82.877,58.4q-.146,0-.292,0a5.329,5.329,0,1,1-.292-10.654Q82.439,47.739,82.585,47.743Zm0,7.991a2.636,2.636,0,0,0,2.664-2.608q0-.028,0-.056a2.664,2.664,0,1,0-5.327-.1q0,.052,0,.1a2.613,2.613,0,0,0,2.561,2.664h.1Z" transform="translate(0.07 -0.002)" style="fill:#4ec2bf"/></svg>