<svg id="Layer_1" data-name="Layer 1" xmlns="http://www.w3.org/2000/svg" viewBox="0 0 93.148 96.576"><defs><style>.cls-1{fill:#f58575}.cls-2{fill:#ffc2b9}.cls-3{fill:none}</style></defs><title>icons-data-cap-capped-light-red</title><path class="cls-1" d="M44 47.517a2.209 2.209 0 0 0 .111.212 3.004 3.004 0 0 1-.061-.113z" transform="translate(-.279)"/><path class="cls-2" d="M20.685 68.436a20.815 20.815 0 0 1-.035-41.621c1.047-.022 9.353.115 19.071 9.792 3.5 3.489 5.992 6.011 7.4 7.5.217.229.424.448.616.661a2.562 2.562 0 0 1 .559.569c.12.154 1.523 1.9 9.319 9.668 8.42 8.384 15.223 8.287 15.3 8.3h.1a15.675 15.675 0 0 0 0-31.34c-6.631 0-10.288 3.438-16.347 9.133-.759.713-1.548 1.455-2.377 2.221a2.57 2.57 0 0 1-3.489-3.775c.818-.755 1.6-1.487 2.346-2.192 6.5-6.112 11.2-10.528 19.868-10.528a20.815 20.815 0 0 1 .035 41.62c-1.05.032-9.354-.113-19.071-9.791-5.691-5.668-8.135-8.286-9.183-9.484a2.573 2.573 0 0 1-.606-.642c-.305-.357-1.728-1.92-8.1-8.267-8.447-8.412-15.209-8.3-15.274-8.3h-.135a15.676 15.676 0 0 0 0 31.341c6.631 0 10.288-3.438 16.347-9.133.759-.713 1.548-1.455 2.377-2.221a2.57 2.57 0 0 1 3.494 3.769c-.818.756-1.6 1.487-2.346 2.192-6.504 6.112-11.202 10.528-19.869 10.528z" transform="translate(-.279)"/><path class="cls-1" d="M39.409 51.941c-.829.766-1.618 1.508-2.377 2.221-6.059 5.7-9.716 9.133-16.347 9.133a15.676 15.676 0 0 1 0-31.341h.135c.066 0 6.827-.115 15.274 8.3 6.373 6.347 7.8 7.91 8.1 8.267a2.573 2.573 0 0 0 .606.642l.119.134 3.758-3.506a9.853 9.853 0 0 1-.385-.455 2.562 2.562 0 0 0-.559-.569c-.192-.212-.4-.432-.616-.661-1.4-1.484-3.893-4.006-7.4-7.5C30 26.929 21.7 26.793 20.649 26.814a20.815 20.815 0 0 0 .035 41.621c8.668 0 13.366-4.416 19.868-10.528.749-.7 1.528-1.436 2.346-2.192a2.57 2.57 0 0 0-3.489-3.775z" transform="translate(-.279)"/><path class="cls-3" d="M0 0h93.148v96.576H0z"/></svg>