<svg id="Layer_1" data-name="Layer 1" xmlns="http://www.w3.org/2000/svg" viewBox="0 0 93.705 96.576"><defs><style>.cls-1{fill:#f58575}.cls-2{fill:#ffc2b9}</style></defs><title>icons-data-cap-unlimited-uncapped-light-red</title><path class="cls-1" d="M20.684 96.575a21.093 21.093 0 0 1-.032-42.175c1.136-.03 9.514.161 19.265 9.872 3.506 3.491 6 6.015 7.4 7.5.21.222.412.436.6.646a2.836 2.836 0 0 1 .593.607c.127.161 1.555 1.932 9.293 9.637 8.324 8.29 14.82 8.245 15.1 8.215h.112a15.4 15.4 0 0 0 0-30.783c-6.521 0-10.147 3.409-16.156 9.055-.76.714-1.55 1.457-2.379 2.224a2.849 2.849 0 0 1-3.868-4.184c.817-.756 1.6-1.487 2.345-2.191 6.3-5.923 11.28-10.6 20.058-10.6a21.093 21.093 0 0 1 .032 42.178c-1.132.039-9.513-.161-19.265-9.873-5.627-5.6-8.1-8.241-9.183-9.479a2.858 2.858 0 0 1-.632-.674c-.317-.369-1.763-1.953-8.076-8.238-8.323-8.289-14.824-8.234-15.1-8.214h-.112a15.4 15.4 0 0 0 0 30.782c6.521 0 10.148-3.409 16.157-9.056.759-.714 1.549-1.456 2.378-2.223a2.849 2.849 0 0 1 3.868 4.184c-.817.756-1.6 1.487-2.344 2.19-6.298 5.925-11.276 10.6-20.054 10.6zm23.057-20.441a2.554 2.554 0 0 0 .137.261c-.028-.048-.055-.1-.08-.148zM44 20.706a2.209 2.209 0 0 0 .111.212 3.004 3.004 0 0 1-.061-.113z"/><path class="cls-2" d="M20.685 41.624A20.635 20.635 0 0 1 .279 20.813 20.636 20.636 0 0 1 20.649 0C21.7-.019 30 .117 39.721 9.794c3.5 3.489 5.992 6.011 7.4 7.5.217.229.424.448.616.661a2.562 2.562 0 0 1 .559.569c.12.154 1.523 1.9 9.319 9.668 8.42 8.384 15.223 8.287 15.3 8.3h.1a15.489 15.489 0 0 0 15.266-15.67A15.49 15.49 0 0 0 73.021 5.14c-6.631 0-10.288 3.438-16.347 9.133-.759.713-1.548 1.455-2.377 2.221a2.57 2.57 0 0 1-3.489-3.775c.818-.755 1.6-1.487 2.346-2.192C59.655 4.416 64.353 0 73.021 0a20.635 20.635 0 0 1 20.406 20.811A20.635 20.635 0 0 1 73.056 41.62c-1.05.032-9.354-.113-19.071-9.791-5.691-5.668-8.135-8.286-9.183-9.484a2.573 2.573 0 0 1-.602-.645c-.305-.357-1.728-1.92-8.1-8.267-8.447-8.412-15.209-8.3-15.274-8.3h-.135a15.49 15.49 0 0 0-15.272 15.68 15.49 15.49 0 0 0 15.266 15.67c6.631 0 10.288-3.438 16.347-9.133.759-.713 1.548-1.455 2.377-2.221A2.57 2.57 0 0 1 42.9 28.9c-.818.756-1.6 1.487-2.346 2.192-6.504 6.116-11.202 10.532-19.869 10.532z"/><path class="cls-1" d="M39.409 25.129c-.829.766-1.618 1.508-2.377 2.221-6.059 5.7-9.716 9.133-16.347 9.133a15.49 15.49 0 0 1-15.266-15.67 15.49 15.49 0 0 1 15.266-15.67h.135c.066 0 6.827-.115 15.274 8.3 6.373 6.347 7.8 7.91 8.1 8.267a2.573 2.573 0 0 0 .606.642l.119.134 3.758-3.506a9.853 9.853 0 0 1-.385-.455 2.562 2.562 0 0 0-.559-.569c-.192-.212-.4-.432-.616-.661-1.4-1.484-3.893-4.006-7.4-7.5C30 .117 21.7-.019 20.649 0A20.636 20.636 0 0 0 .279 20.813a20.635 20.635 0 0 0 20.406 20.811c8.668 0 13.366-4.416 19.868-10.528.749-.7 1.528-1.436 2.346-2.192a2.57 2.57 0 0 0-3.489-3.775z"/></svg>