<svg id="74e8e068-b06d-4298-92d5-d0e91244cf16" data-name="Layer 1" xmlns="http://www.w3.org/2000/svg" xmlns:xlink="http://www.w3.org/1999/xlink" viewBox="0 0 110.999 91.996"><defs><clipPath id="dd275616-adfe-415c-935a-a442e8179a99" transform="translate(0 0.001)"><rect width="110.999" height="91.995" style="fill:none"/></clipPath></defs><title>icons-reliability-pro-purple</title><g style="clip-path:url(#dd275616-adfe-415c-935a-a442e8179a99)"><path d="M111,46A35.7,35.7,0,0,0,75.374,10.3H66.143a2.665,2.665,0,0,0,0,5.33h9.231a30.363,30.363,0,0,1,0,60.726H69.048l9.215-5.33A2.664,2.664,0,0,0,75.6,66.414L57.79,76.716a2.668,2.668,0,0,0,0,4.616L75.6,91.638a2.665,2.665,0,0,0,2.661-4.619L69.05,81.691h6.324A35.7,35.7,0,0,0,111,46" transform="translate(0 0.001)" style="fill:#cbbbe9"/><path d="M53.207,10.661,35.4.357a2.664,2.664,0,0,0-2.66,4.617l9.212,5.33H35.624a35.694,35.694,0,0,0,0,71.387h9.231a2.666,2.666,0,0,0,0-5.331H35.624a30.363,30.363,0,0,1,0-60.726H41.95l-9.214,5.33a2.667,2.667,0,0,0,1.332,4.974A2.639,2.639,0,0,0,35.4,25.58l17.812-10.3a2.667,2.667,0,0,0,0-4.616" transform="translate(0 0.001)" style="fill:#cbbbe9"/></g><g style="opacity:0.53"><path d="M32,47.5H53.5a1.5,1.5,0,0,0,0-3H32a1.5,1.5,0,0,0,0,3Z" transform="translate(0 0.001)" style="fill:#755ba7"/></g><g style="opacity:0.53"><path d="M65,47.5H86.5a1.5,1.5,0,0,0,0-3H65a1.5,1.5,0,0,0,0,3Z" transform="translate(0 0.001)" style="fill:#755ba7"/></g></svg>