<?xml version="1.0" encoding="UTF-8" standalone="no"?>
<svg width="400px" height="400px" viewBox="0 0 400 400" version="1.1" xmlns="http://www.w3.org/2000/svg" xmlns:xlink="http://www.w3.org/1999/xlink">
    <!-- Generator: Sketch 44.1 (41455) - http://www.bohemiancoding.com/sketch -->
    <title>Connect to network</title>
    <desc>Created with Sketch.</desc>
    <defs>
        <polygon id="path-1" points="1.54585546e-14 399.998737 1.54585546e-14 1.40505263 398.596632 1.40505263 398.596632 399.998737"></polygon>
    </defs>
    <g id="Page-1" stroke="none" stroke-width="1" fill="none" fill-rule="evenodd">
        <g id="Group" transform="translate(0.000000, -3.000000)">
            <g id="Group-44" transform="translate(0.000000, 2.807158)">
                <mask id="mask-2" fill="white">
                    <use xlink:href="#path-1"></use>
                </mask>
                <g id="Clip-43"></g>
                <path d="M398.596632,200.701895 C398.596632,310.769263 309.367158,399.998737 199.299789,399.998737 C89.2282105,399.998737 -0.00126315789,310.769263 -0.00126315789,200.701895 C-0.00126315789,90.6345263 89.2282105,1.40505263 199.299789,1.40505263 C309.367158,1.40505263 398.596632,90.6345263 398.596632,200.701895" id="Fill-42" fill="#00B6F9" mask="url(#mask-2)"></path>
            </g>
            <path d="M199.298105,152.052211 C171.946526,152.052211 149.693895,174.304842 149.693895,201.656421 C149.693895,229.008 171.946526,251.260632 199.298105,251.260632 C226.649684,251.260632 248.902316,229.008 248.902316,201.656421 C248.902316,174.304842 226.649684,152.052211 199.298105,152.052211 M199.298105,257.997474 C168.232842,257.997474 142.957053,232.725895 142.957053,201.656421 C142.957053,170.591158 168.232842,145.315368 199.298105,145.315368 C230.363368,145.315368 255.639158,170.591158 255.639158,201.656421 C255.639158,232.725895 230.363368,257.997474 199.298105,257.997474" id="Fill-45" fill="#FFFFFF"></path>
            <path d="M199.298105,73.2509474 C187.310737,73.2509474 177.559158,83.0025263 177.559158,94.9898947 C177.559158,106.977263 187.310737,116.728842 199.298105,116.728842 C211.285474,116.728842 221.037053,106.977263 221.037053,94.9898947 C221.037053,83.0025263 211.285474,73.2509474 199.298105,73.2509474 M199.298105,123.465684 C183.597053,123.465684 170.822316,110.690947 170.822316,94.9898947 C170.822316,79.2888421 183.597053,66.5141053 199.298105,66.5141053 C214.999158,66.5141053 227.773895,79.2888421 227.773895,94.9898947 C227.773895,110.690947 214.999158,123.465684 199.298105,123.465684" id="Fill-47" fill="#FFFFFF"></path>
            <path d="M199.298105,290.288421 C187.310737,290.288421 177.559158,300.04 177.559158,312.027368 C177.559158,324.014737 187.310737,333.766316 199.298105,333.766316 C211.285474,333.766316 221.037053,324.014737 221.037053,312.027368 C221.037053,300.04 211.285474,290.288421 199.298105,290.288421 M199.298105,340.498947 C183.597053,340.498947 170.822316,327.728421 170.822316,312.027368 C170.822316,296.326316 183.597053,283.551579 199.298105,283.551579 C214.999158,283.551579 227.773895,296.326316 227.773895,312.027368 C227.773895,327.728421 214.999158,340.498947 199.298105,340.498947" id="Fill-49" fill="#FFFFFF"></path>
            <path d="M307.817684,181.770526 C295.830316,181.770526 286.078737,191.522105 286.078737,203.509474 C286.078737,215.492632 295.830316,225.248421 307.817684,225.248421 C319.805053,225.248421 329.556632,215.492632 329.556632,203.509474 C329.556632,191.522105 319.805053,181.770526 307.817684,181.770526 M307.817684,231.981053 C292.116632,231.981053 279.341895,219.210526 279.341895,203.509474 C279.341895,187.808421 292.116632,175.033684 307.817684,175.033684 C323.518737,175.033684 336.293474,187.808421 336.293474,203.509474 C336.293474,219.210526 323.518737,231.981053 307.817684,231.981053" id="Fill-51" fill="#FFFFFF"></path>
            <path d="M90.7823158,181.770526 C78.7949474,181.770526 69.0433684,191.522105 69.0433684,203.509474 C69.0433684,215.492632 78.7949474,225.248421 90.7823158,225.248421 C102.769684,225.248421 112.517053,215.492632 112.517053,203.509474 C112.517053,191.522105 102.769684,181.770526 90.7823158,181.770526 M90.7823158,231.981053 C75.0812632,231.981053 62.3065263,219.210526 62.3065263,203.509474 C62.3065263,187.808421 75.0812632,175.033684 90.7823158,175.033684 C106.483368,175.033684 119.253895,187.808421 119.253895,203.509474 C119.253895,219.210526 106.483368,231.981053 90.7823158,231.981053" id="Fill-53" fill="#FFFFFF"></path>
            <polygon id="Fill-55" fill="#FFFFFF" points="115.802105 206.672421 146.682105 206.672421 146.682105 199.935579 115.802105 199.935579"></polygon>
            <polygon id="Fill-57" fill="#FFFFFF" points="251.945263 206.672421 282.821053 206.672421 282.821053 199.935579 251.945263 199.935579"></polygon>
            <polygon id="Fill-58" fill="#FFFFFF" points="195.945263 150.672421 202.682105 150.672421 202.682105 119.796632 195.945263 119.796632"></polygon>
            <polygon id="Fill-59" fill="#FFFFFF" points="195.945263 286.815579 202.682105 286.815579 202.682105 255.939789 195.945263 255.939789"></polygon>
            <path d="M193.525053,222.689684 C192.468211,222.689684 191.415579,222.293895 190.598737,221.506526 L174.809263,206.243368 C173.137684,204.626526 173.091368,201.961263 174.708211,200.289684 C176.329263,198.622316 178.990316,198.567579 180.661895,200.188632 L193.558737,212.656 L219.053474,188.576 C220.746105,186.976 223.415579,187.056 225.007158,188.744421 C226.602947,190.437053 226.527158,193.102316 224.838737,194.698105 L196.417684,221.540211 C195.605053,222.306526 194.565053,222.689684 193.525053,222.689684" id="Fill-60" fill="#FFFFFF"></path>
        </g>
        <g id="Connect-to-network"></g>
    </g>
</svg>