<?xml version="1.0" encoding="UTF-8" standalone="no"?>
<svg width="400px" height="400px" viewBox="0 0 400 400" version="1.1" xmlns="http://www.w3.org/2000/svg" xmlns:xlink="http://www.w3.org/1999/xlink">
    <!-- Generator: Sketch 44.1 (41455) - http://www.bohemiancoding.com/sketch -->
    <title>Agree ona plan</title>
    <desc>Created with Sketch.</desc>
    <defs></defs>
    <g id="Page-1" stroke="none" stroke-width="1" fill="none" fill-rule="evenodd">
        <g id="Agree-ona-plan">
            <g id="Group-2" transform="translate(2.000000, 1.000000)">
                <path d="M394.87625,199.298526 C394.87625,309.365895 306.57625,398.595368 197.655417,398.595368 C88.7304167,398.595368 0.430416667,309.365895 0.430416667,199.298526 C0.430416667,89.2311579 88.7304167,0.00168421053 197.655417,0.00168421053 C306.57625,0.00168421053 394.87625,89.2311579 394.87625,199.298526" id="Fill-20" fill="#00B6F9"></path>
                <path d="M180.789167,176.155789 L201.5725,176.155789 C203.143333,176.155789 204.501667,177.271579 204.835,178.821053 C204.880833,179.044211 209.689167,200.997895 223.56,200.997895 L253.335,200.997895 C254.014167,200.997895 254.676667,201.208421 255.239167,201.6 L292.543333,227.814737 L302.476667,219.587368 L254.301667,156.635789 L163.51,156.635789 L147.851667,178.576842 C145.868333,181.355789 145.1475,184.732632 145.818333,188.088421 C146.4975,191.448421 148.464167,194.277895 151.364167,196.054737 C156.701667,199.322105 163.730833,197.856842 167.364167,192.728421 L178.076667,177.566316 C178.701667,176.682105 179.71,176.155789 180.789167,176.155789 M292.705833,235.397895 C292.043333,235.397895 291.376667,235.2 290.801667,234.795789 L252.289167,207.734737 L223.56,207.734737 C207.689167,207.734737 200.9975,189.835789 198.993333,182.892632 L182.505833,182.892632 L172.789167,196.644211 C167.1475,204.623158 156.21,206.901053 147.91,201.814737 C143.464167,199.090526 140.3225,194.576842 139.289167,189.431579 C138.255833,184.286316 139.401667,178.892632 142.4475,174.635789 L159.101667,151.301053 C159.726667,150.421053 160.735,149.903158 161.801667,149.903158 L255.935,149.903158 C256.968333,149.903158 257.943333,150.383158 258.5725,151.208421 L309.730833,218.058947 C310.835,219.498947 310.601667,221.566316 309.205833,222.724211 L294.818333,234.635789 C294.21,235.145263 293.46,235.397895 292.705833,235.397895" id="Fill-22" fill="#FFFFFF"></path>
                <path d="M255.80125,147.767579 L314.197083,224.260211 L342.497083,202.201263 L284.10125,125.708632 L255.80125,147.767579 Z M313.597083,232.352842 C312.597083,232.352842 311.61375,231.902316 310.95125,231.043368 L248.484583,149.216 C247.947083,148.508632 247.709583,147.611789 247.822083,146.723368 C247.930417,145.839158 248.392917,145.034947 249.092917,144.491789 L282.667917,118.319158 C284.130417,117.173895 286.222083,117.460211 287.342917,118.925474 L349.809583,200.752842 C350.347083,201.460211 350.58875,202.357053 350.47625,203.245474 C350.36375,204.129684 349.905417,204.933895 349.205417,205.481263 L315.62625,231.653895 C315.022083,232.125474 314.305417,232.352842 313.597083,232.352842 L313.597083,232.352842 Z" id="Fill-24" fill="#FFFFFF"></path>
                <path d="M52.8145833,202.202526 L81.1145833,224.261474 L139.50625,147.768842 L111.20625,125.709895 L52.8145833,202.202526 Z M81.71875,232.354105 C80.9854167,232.354105 80.26875,232.114105 79.68125,231.655158 L46.10625,205.478316 C44.64375,204.345684 44.3770833,202.227789 45.4979167,200.754105 L107.960417,118.926737 C109.089583,117.461474 111.177083,117.179368 112.635417,118.320421 L146.214583,144.488842 C146.914583,145.036211 147.372917,145.840421 147.485417,146.724632 C147.597917,147.613053 147.35625,148.509895 146.822917,149.217263 L84.35625,231.044632 C83.8145833,231.752 83.01875,232.210947 82.14375,232.328842 C82.0020833,232.345684 81.8604167,232.354105 81.71875,232.354105 L81.71875,232.354105 Z" id="Fill-26" fill="#FFFFFF"></path>
                <path d="M100.589167,235.592421 C99.8766667,235.592421 99.1516667,235.360842 98.5475,234.885053 L85.2141667,224.392421 C83.76,223.247158 83.4975,221.129263 84.6308333,219.664 C85.7516667,218.198737 87.8475,217.925053 89.3058333,219.074526 L102.639167,229.567158 C104.093333,230.708211 104.351667,232.826105 103.2225,234.295579 C102.568333,235.146105 101.580833,235.592421 100.589167,235.592421" id="Fill-28" fill="#FFFFFF"></path>
                <path d="M208.458333,316.727579 C204.645833,316.727579 200.816667,315.502316 197.616667,312.980211 L193.616667,309.801263 C192.170833,308.651789 191.916667,306.533895 193.058333,305.068632 C194.195833,303.607579 196.2875,303.354947 197.7375,304.504421 L201.729167,307.679158 C206.425,311.371789 213.291667,310.580211 217.054167,305.906526 C218.941667,303.561263 219.791667,300.609684 219.445833,297.603368 C219.1375,294.929684 217.920833,292.517053 215.9875,290.710737 L208.233333,284.685474 C206.779167,283.552842 206.504167,281.443368 207.625,279.969684 C208.7375,278.496 210.825,278.213895 212.2875,279.338105 L219.2875,284.723368 C219.620833,284.980211 219.941667,285.249684 220.25,285.527579 L230.320833,293.363368 C235.3,297.253895 242.475,296.327579 246.325,291.296 C248.241667,288.794947 249.041667,285.691789 248.583333,282.559158 C248.129167,279.430737 246.470833,276.698105 243.925,274.862316 L218.825,256.790737 C217.325,255.708632 216.975,253.607579 218.045833,252.091789 C219.1125,250.576 221.1875,250.222316 222.691667,251.300211 L222.725,251.325474 L253.691667,273.594947 C258.925,277.359158 266.079167,276.268632 269.975,271.093895 C271.945833,268.474947 272.758333,265.241263 272.25,261.990737 C271.741667,258.740211 269.995833,255.914947 267.320833,254.032842 L236.245833,232.171789 C234.7375,231.110737 234.3625,229.009684 235.416667,227.481263 C236.466667,225.957053 238.5375,225.578105 240.054167,226.639158 L278.441667,253.641263 C283.445833,257.161263 290.2125,256.049684 293.85,251.102316 C295.679167,248.618105 296.4125,245.565474 295.916667,242.508632 C295.420833,239.447579 293.7625,236.790737 291.2375,235.026526 L251.433333,207.131789 C249.920833,206.074947 249.545833,203.973895 250.595833,202.445474 C251.641667,200.921263 253.7125,200.529684 255.2375,201.599158 L295.0375,229.489684 C299.054167,232.306526 301.704167,236.542316 302.495833,241.418105 C303.2875,246.289684 302.116667,251.157053 299.195833,255.123368 C294.3875,261.666526 286.1375,264.007579 278.9,261.397053 C279.55,266.327579 278.270833,271.203368 275.279167,275.173895 C270.45,281.582316 262.395833,283.986526 255.208333,281.767579 C255.870833,286.660211 254.591667,291.502316 251.6,295.418105 C245.504167,303.380211 234.129167,304.858105 226.25,298.693895 L226.1875,298.647579 C226.254167,302.828632 224.875,306.862316 222.229167,310.154947 C218.758333,314.474947 213.625,316.727579 208.458333,316.727579" id="Fill-30" fill="#FFFFFF"></path>
                <path d="M154.45875,166.863158 C154.000417,166.863158 153.53375,166.770526 153.09625,166.568421 L136.23375,158.917895 C134.554583,158.155789 133.800417,156.164211 134.55875,154.467368 C135.304583,152.762105 137.304583,152.012632 138.95875,152.770526 L155.82125,160.421053 C157.500417,161.183158 158.254583,163.174737 157.49625,164.871579 C156.94625,166.122105 155.729583,166.863158 154.45875,166.863158" id="Fill-32" fill="#FFFFFF"></path>
                <path d="M147.47625,232.975579 C146.884583,232.975579 146.292917,233.021895 145.697083,233.110316 C142.60125,233.586105 139.872083,235.249263 138.009583,237.796632 L121.41375,260.533474 C119.555417,263.085053 118.784583,266.213474 119.255417,269.346105 C119.722083,272.474526 121.367917,275.236632 123.892917,277.114526 C126.41375,278.996632 129.51375,279.767158 132.61375,279.299789 C135.709583,278.828211 138.43875,277.160842 140.30125,274.613474 L156.897083,251.876632 C158.755417,249.325053 159.522083,246.200842 159.05125,243.064 C158.584583,239.935579 156.93875,237.173474 154.417917,235.295579 C152.380417,233.771368 149.96375,232.975579 147.47625,232.975579 M130.822083,286.171368 C126.917917,286.171368 123.134583,284.920842 119.93875,282.537684 C115.97625,279.590316 113.397083,275.261895 112.66375,270.348211 C111.930417,265.438737 113.130417,260.529263 116.05125,256.533474 L132.642917,233.800842 C138.66375,225.548211 150.20125,223.779789 158.372083,229.872421 C166.53875,235.956632 168.284583,247.624 162.259583,255.872421 L145.66375,278.609263 C142.747083,282.609263 138.467917,285.219789 133.605417,285.960842 C132.67625,286.104 131.747083,286.171368 130.822083,286.171368" id="Fill-34" fill="#FFFFFF"></path>
                <path d="M115.274167,225.952421 C114.6825,225.952421 114.090833,225.998737 113.495,226.087158 C110.399167,226.562947 107.67,228.226105 105.8075,230.773474 L101.103333,237.219789 C97.2616667,242.478737 98.3741667,249.918737 103.5825,253.800842 C106.103333,255.682947 109.190833,256.453474 112.303333,255.981895 C115.399167,255.510316 118.1325,253.847158 119.995,251.295579 L124.699167,244.853474 C126.5575,242.301895 127.324167,239.177684 126.853333,236.040842 C126.386667,232.912421 124.736667,230.150316 122.215833,228.272421 C120.178333,226.748211 117.761667,225.952421 115.274167,225.952421 M110.5075,262.857684 C106.611667,262.857684 102.828333,261.607158 99.6283333,259.224 C91.4616667,253.135579 89.7158333,241.472421 95.7408333,233.219789 L100.440833,226.773474 C103.361667,222.777684 107.640833,220.167158 112.503333,219.426105 C117.353333,218.685053 122.211667,219.901895 126.17,222.849263 C130.128333,225.796632 132.715833,230.125053 133.445,235.038737 C134.1825,239.948211 132.978333,244.853474 130.061667,248.853474 L125.3575,255.295579 C122.440833,259.291368 118.1575,261.901895 113.295,262.642947 C112.37,262.786105 111.436667,262.857684 110.5075,262.857684" id="Fill-36" fill="#FFFFFF"></path>
                <path d="M180.553333,238.797895 C179.961667,238.797895 179.37,238.844211 178.774167,238.932632 C175.678333,239.408421 172.949167,241.071579 171.086667,243.618947 L145.695,278.406316 C143.8325,280.957895 143.07,284.082105 143.536667,287.218947 C144.0075,290.347368 145.649167,293.109474 148.174167,294.987368 C153.3825,298.873684 160.740833,297.749474 164.586667,292.482105 L189.978333,257.698947 C191.836667,255.151579 192.603333,252.023158 192.1325,248.890526 C191.665833,245.757895 190.015833,242.995789 187.495,241.117895 C185.4575,239.593684 183.040833,238.797895 180.553333,238.797895 M155.12,304.035789 C151.32,304.035789 147.495,302.856842 144.215833,300.410526 C136.049167,294.326316 134.3075,282.658947 140.3325,274.406316 L165.72,239.618947 C168.640833,235.623158 172.92,233.012632 177.7825,232.271579 C182.615833,231.522105 187.495,232.747368 191.449167,235.694737 C195.403333,238.642105 197.990833,242.970526 198.724167,247.88 C199.461667,252.793684 198.2575,257.698947 195.340833,261.698947 L169.949167,296.486316 C166.349167,301.421053 160.765833,304.035789 155.12,304.035789" id="Fill-38" fill="#FFFFFF"></path>
                <path d="M195.140833,270.407579 C194.549167,270.407579 193.9575,270.453895 193.361667,270.542316 C190.265833,271.018105 187.536667,272.681263 185.674167,275.232842 L174.0825,291.110737 C172.224167,293.658105 171.453333,296.786526 171.924167,299.919158 C172.390833,303.051789 174.040833,305.813895 176.561667,307.691789 C179.0825,309.573895 182.174167,310.348632 185.2825,309.877053 C188.378333,309.401263 191.1075,307.738105 192.97,305.186526 L204.565833,289.308632 C206.424167,286.757053 207.190833,283.632842 206.72,280.496 C206.253333,277.367579 204.603333,274.605474 202.0825,272.727579 C200.045,271.203368 197.628333,270.407579 195.140833,270.407579 M183.503333,316.736 C179.7075,316.736 175.886667,315.557053 172.6075,313.114947 C168.649167,310.163368 166.065833,305.839158 165.3325,300.925474 C164.599167,296.016 165.799167,291.106526 168.72,287.110737 L180.3075,271.232842 C183.228333,267.232842 187.5075,264.622316 192.37,263.881263 C197.211667,263.136 202.078333,264.352842 206.036667,267.304421 C209.995,270.251789 212.5825,274.580211 213.311667,279.493895 C214.049167,284.403368 212.845,289.308632 209.928333,293.304421 L198.345,309.178105 C194.7325,314.121263 189.153333,316.736 183.503333,316.736" id="Fill-40" fill="#FFFFFF"></path>
            </g>
        </g>
    </g>
</svg>