<?xml version="1.0" encoding="UTF-8" standalone="no"?>
<svg width="400px" height="400px" viewBox="0 0 400 400" version="1.1" xmlns="http://www.w3.org/2000/svg" xmlns:xlink="http://www.w3.org/1999/xlink">
    <!-- Generator: Sketch 44.1 (41455) - http://www.bohemiancoding.com/sketch -->
    <title>Build your fibre</title>
    <desc>Created with Sketch.</desc>
    <defs>
        <polygon id="path-1" points="397.7 1.39041667 397.7 395.832083 3.25583333 395.832083 3.25583333 1.39041667 397.7 1.39041667"></polygon>
    </defs>
    <g id="Page-1" stroke="none" stroke-width="1" fill="none" fill-rule="evenodd">
        <g id="Build-your-fibre">
            <g id="Group-4">
                <g id="Group-3" transform="translate(0.000000, 2.777917)">
                    <mask id="mask-2" fill="white">
                        <use xlink:href="#path-1"></use>
                    </mask>
                    <g id="Clip-2"></g>
                    <path d="M397.701667,198.61125 C397.701667,307.532083 309.401667,395.832083 200.480833,395.832083 C91.5558333,395.832083 3.25583333,307.532083 3.25583333,198.61125 C3.25583333,89.6904167 91.5558333,1.39041667 200.480833,1.39041667 C309.401667,1.39041667 397.701667,89.6904167 397.701667,198.61125" id="Fill-1" fill="#00B6F9" mask="url(#mask-2)"></path>
                </g>
                <path d="M132.817917,223.924167 C129.530417,223.924167 126.855417,226.599167 126.855417,229.8825 L126.855417,310.5575 C126.855417,313.845 129.530417,316.515833 132.817917,316.515833 L163.142917,316.515833 C166.42625,316.515833 169.10125,313.845 169.10125,310.5575 L169.10125,229.8825 C169.10125,226.599167 166.42625,223.924167 163.142917,223.924167 L132.817917,223.924167 Z M163.142917,323.1825 L132.817917,323.1825 C125.855417,323.1825 120.192917,317.52 120.192917,310.5575 L120.192917,229.8825 C120.192917,222.92 125.855417,217.2575 132.817917,217.2575 L163.142917,217.2575 C170.105417,217.2575 175.767917,222.92 175.767917,229.8825 L175.767917,310.5575 C175.767917,317.52 170.105417,323.1825 163.142917,323.1825 L163.142917,323.1825 Z" id="Fill-4" fill="#FFFFFF"></path>
                <path d="M136.7075,217.259167 L159.249167,217.259167 L159.249167,213.363333 C159.249167,211.450833 157.690833,209.8925 155.778333,209.8925 L140.178333,209.8925 C138.265833,209.8925 136.7075,211.450833 136.7075,213.363333 L136.7075,217.259167 Z M165.915833,223.925833 L130.040833,223.925833 L130.040833,213.363333 C130.040833,207.775833 134.586667,203.225833 140.178333,203.225833 L155.778333,203.225833 C161.37,203.225833 165.915833,207.775833 165.915833,213.363333 L165.915833,223.925833 Z" id="Fill-6" fill="#FFFFFF"></path>
                <path d="M144.862083,203.233333 L151.095417,203.233333 L151.095417,121.5875 C151.095417,120.820833 151.362083,120.075 151.845417,119.479167 L157.80375,112.175 L150.270417,83.8958333 L145.687083,83.8958333 L138.15375,112.175 L144.112083,119.4875 C144.599583,120.083333 144.862083,120.829167 144.862083,121.595833 L144.862083,203.233333 Z M154.42875,209.9 L141.52875,209.9 C139.69125,209.9 138.195417,208.408333 138.195417,206.566667 L138.195417,122.779167 L131.912083,115.066667 C131.232917,114.241667 130.999583,113.1375 131.270417,112.104167 L139.90375,79.7041667 C140.29125,78.2458333 141.61625,77.2291667 143.124583,77.2291667 L152.832917,77.2291667 C154.34125,77.2291667 155.66625,78.2458333 156.057917,79.7041667 L164.687083,112.104167 C164.957917,113.1375 164.724583,114.241667 164.045417,115.070833 L157.762083,122.775 L157.762083,206.566667 C157.762083,208.408333 156.26625,209.9 154.42875,209.9 L154.42875,209.9 Z" id="Fill-8" fill="#FFFFFF"></path>
                <path d="M139.1125,310.909583 C137.275,310.909583 135.779167,309.417917 135.779167,307.57625 L135.779167,231.784583 C135.779167,229.942917 137.275,228.45125 139.1125,228.45125 C140.95,228.45125 142.445833,229.942917 142.445833,231.784583 L142.445833,307.57625 C142.445833,309.417917 140.95,310.909583 139.1125,310.909583" id="Fill-10" fill="#FFFFFF"></path>
                <path d="M155.925417,310.909583 C154.087917,310.909583 152.592083,309.417917 152.592083,307.57625 L152.592083,231.784583 C152.592083,229.942917 154.087917,228.45125 155.925417,228.45125 C157.762917,228.45125 159.25875,229.942917 159.25875,231.784583 L159.25875,307.57625 C159.25875,309.417917 157.762917,310.909583 155.925417,310.909583" id="Fill-12" fill="#FFFFFF"></path>
                <path d="M238.685417,278.306667 C250.04375,278.306667 259.277083,287.544167 259.277083,298.898333 L259.277083,316.39 C268.539583,309.9025 274.102083,299.39 274.102083,287.844167 C274.102083,273.3025 265.322917,260.510833 251.73125,255.256667 C250.447917,254.760833 249.602083,253.523333 249.602083,252.148333 L249.602083,151.7275 C249.602083,150.3525 250.447917,149.115 251.73125,148.619167 C265.322917,143.360833 274.102083,130.569167 274.102083,116.031667 C274.102083,104.485833 268.539583,93.9733333 259.277083,87.4858333 L259.277083,104.973333 C259.277083,116.3275 250.04375,125.569167 238.685417,125.569167 C227.327083,125.569167 218.09375,116.3275 218.09375,104.973333 L218.09375,88.1233333 C209.389583,94.6691667 204.16875,104.923333 204.16875,116.031667 C204.16875,130.569167 212.947917,143.360833 226.539583,148.619167 C227.822917,149.115 228.66875,150.348333 228.66875,151.7275 L228.66875,252.148333 C228.66875,253.523333 227.822917,254.760833 226.539583,255.256667 C212.947917,260.510833 204.16875,273.3025 204.16875,287.844167 C204.16875,298.948333 209.389583,309.2025 218.09375,315.748333 L218.09375,298.898333 C218.09375,287.544167 227.327083,278.306667 238.685417,278.306667 M255.947917,325.548333 C255.33125,325.548333 254.722917,325.3775 254.185417,325.044167 C253.20625,324.435833 252.614583,323.365 252.614583,322.215 L252.614583,298.898333 C252.614583,291.219167 246.364583,284.973333 238.685417,284.973333 C231.00625,284.973333 224.75625,291.219167 224.75625,298.898333 L224.75625,321.781667 C224.75625,322.948333 224.147917,324.031667 223.147917,324.631667 C222.152083,325.24 220.91875,325.273333 219.877083,324.735833 C206.077083,317.519167 197.502083,303.381667 197.502083,287.844167 C197.502083,271.298333 207.04375,256.660833 222.002083,249.9275 L222.002083,153.944167 C207.04375,147.215 197.502083,132.573333 197.502083,116.031667 C197.502083,100.49 206.077083,86.3566667 219.877083,79.14 C220.91875,78.6025 222.15625,78.64 223.147917,79.2441667 C224.147917,79.8441667 224.75625,80.9275 224.75625,82.0941667 L224.75625,104.973333 C224.75625,112.6525 231.00625,118.9025 238.685417,118.9025 C246.364583,118.9025 252.614583,112.6525 252.614583,104.973333 L252.614583,81.6608333 C252.614583,80.5108333 253.20625,79.44 254.185417,78.8316667 C255.15625,78.2233333 256.377083,78.1566667 257.410417,78.665 C271.81875,85.7233333 280.76875,100.04 280.76875,116.031667 C280.76875,132.569167 271.227083,147.210833 256.26875,153.944167 L256.26875,249.9275 C271.227083,256.660833 280.76875,271.3025 280.76875,287.844167 C280.76875,303.831667 271.81875,318.148333 257.414583,325.206667 C256.947917,325.435833 256.447917,325.548333 255.947917,325.548333" id="Fill-14" fill="#FFFFFF"></path>
                <path d="M252.930833,155.052083 L244.701667,155.052083 C242.864167,155.052083 241.3725,153.560417 241.3725,151.71875 C241.3725,149.877083 242.864167,148.385417 244.701667,148.385417 L252.930833,148.385417 C254.768333,148.385417 256.264167,149.877083 256.264167,151.71875 C256.264167,153.560417 254.768333,155.052083 252.930833,155.052083" id="Fill-16" fill="#FFFFFF"></path>
                <path d="M233.570417,255.489583 L225.345417,255.489583 C223.507917,255.489583 222.01625,253.997917 222.01625,252.15625 C222.01625,250.314583 223.507917,248.822917 225.345417,248.822917 L233.570417,248.822917 C235.407917,248.822917 236.90375,250.314583 236.90375,252.15625 C236.90375,253.997917 235.407917,255.489583 233.570417,255.489583" id="Fill-18" fill="#FFFFFF"></path>
            </g>
        </g>
    </g>
</svg>